<svg xmlns="http://www.w3.org/2000/svg" xmlns:xlink="http://www.w3.org/1999/xlink" width="612" height="792"><defs><path id="b" d="m549.404 1078.992c0-134.372-108.937-243.309-243.309-243.309-134.373 0-243.308 108.937-243.308 243.309 0 108.362 70.877 200.086 168.778 231.565l74.55 137.106 74.549-137.106c97.862-31.479 168.74-123.203 168.74-231.565z"/><linearGradient id="a"><stop offset="0" stop-color="#00f"/><stop offset="1" stop-color="#051360"/></linearGradient><radialGradient id="d" cx="306.0957" cy="1141.6738" r="276.4318" gradientUnits="userSpaceOnUse" xlink:href="#a"/><clipPath id="e"><use xlink:href="#b"/></clipPath><radialGradient id="f" cx="183.6582" cy="956.8789" r="256.8545" gradientUnits="userSpaceOnUse" xlink:href="#a"/><radialGradient id="g" cx="121.1465" cy="894.3613" r="256.8545" gradientUnits="userSpaceOnUse" xlink:href="#a"/><radialGradient id="h" cx="306" cy="396" r="276.4372" gradientUnits="userSpaceOnUse" xlink:href="#a"/><clipPath id="i"><use xlink:href="#c"/></clipPath><radialGradient id="j" cx="183.5615" cy="211.1992" r="256.8545" gradientUnits="userSpaceOnUse" xlink:href="#a"/><radialGradient id="k" cx="121.0625" cy="148.6943" r="256.8545" gradientUnits="userSpaceOnUse" xlink:href="#a"/><linearGradient id="l" x1="9.7788" x2="23.1699" y1="780.0166" y2="780.0166" gradientTransform="matrix(19.125 0 0 -19.125 -9.0625 15247.0625)" gradientUnits="userSpaceOnUse"><stop offset="0" stop-color="#fff"/><stop offset="1" stop-color="#c8c8c8"/></linearGradient><path id="c" d="m549.309 333.308c0-134.372-108.937-243.308-243.309-243.308s-243.308 108.936-243.308 243.308c0 108.363 70.877 200.085 168.778 231.566l74.53 137.126 74.549-137.107c97.882-31.499 168.76-123.222 168.76-231.585z"/></defs><use fill="url(#d)" xlink:href="#b"/><g clip-path="url(#e)"><path fill="url(#f)" d="m-73.196 1070.373 370.348-370.349 143.361 143.361-370.349 370.348z" opacity=".25"/><path fill="url(#g)" d="m-135.708 1007.855 370.349-370.349 143.36 143.361-370.349 370.349z" opacity=".25"/></g><path fill="url(#h)" d="m549.309 333.308c0-134.372-108.937-243.308-243.309-243.308s-243.308 108.936-243.308 243.308c0 108.363 70.877 200.085 168.778 231.566l74.53 137.126 74.549-137.107c97.882-31.499 168.76-123.222 168.76-231.585z"/><use fill="url(#h)" xlink:href="#c"/><g clip-path="url(#i)"><path fill="url(#j)" d="m-73.293 324.693 370.349-370.349 143.36 143.361-370.349 370.349z" opacity=".25"/><path fill="url(#k)" d="m-135.792 262.189 370.349-370.349 143.36 143.36-370.348 370.349z" opacity=".25"/></g><path fill="url(#l)" d="m402.026 201.193h-192.053c-18.073 0-32.015 13.942-32.015 32.015v192.072c0 18.073 13.942 32.016 32.015 32.016h192.073c18.073 0 32.015-13.942 32.015-32.016v-192.072c-.019-18.073-13.961-32.015-32.035-32.015zm-95.835 77.743c28.4 0 51.408 22.3 51.408 49.82 0 27.502-23.008 49.821-51.408 49.821-28.382 0-51.408-22.319-51.408-49.821 0-27.52 23.027-49.82 51.408-49.82zm95.835 138.331c0 5.604-2.409 7.995-7.994 7.995h-176.064c-5.584 0-7.995-2.391-7.995-7.995v-112.034l19.948 4.341c-2.142 6.961-3.309 14.325-3.309 21.975 0 42.553 35.649 77.093 79.579 77.093 43.949 0 79.579-34.54 79.579-77.093 0-7.65-1.167-15.013-3.29-21.975l19.565-4.341v112.034zm0-144.049c0 4.417-3.576 7.994-7.994 7.994h-32.015c-4.418 0-7.995-3.577-7.995-7.994v-31.997c0-4.417 3.577-7.994 7.995-7.994h32.015c4.418 0 7.994 3.577 7.994 7.994z"/></svg>