<svg xmlns="http://www.w3.org/2000/svg" xmlns:xlink="http://www.w3.org/1999/xlink" width="612" height="792"><defs><path id="a" d="m549.404 1078.992c0-134.372-108.938-243.31-243.31-243.31-134.373 0-243.308 108.938-243.308 243.31 0 108.361 70.877 200.086 168.778 231.564l74.55 137.106 74.549-137.106c97.863-31.478 168.741-123.202 168.741-231.564z"/><clipPath id="c"><use xlink:href="#a"/></clipPath><clipPath id="d"><use xlink:href="#b"/></clipPath><radialGradient id="e" cx="306.0093" cy="329.2441" r="128.0515" gradientUnits="userSpaceOnUse"><stop offset="0" stop-color="#00f"/><stop offset="1" stop-color="#051360"/></radialGradient><path id="b" d="m549.309 333.308c0-134.372-108.937-243.308-243.309-243.308s-243.308 108.936-243.308 243.308c0 108.363 70.877 200.085 168.778 231.566l74.53 137.126 74.549-137.107c97.882-31.499 168.76-123.222 168.76-231.585z"/></defs><g fill="#fff"><path stroke="#051360" stroke-miterlimit="10" stroke-width="23" d="m549.404 1078.992c0-134.372-108.938-243.31-243.31-243.31-134.373 0-243.308 108.938-243.308 243.31 0 108.361 70.877 200.086 168.778 231.564l74.55 137.106 74.549-137.106c97.863-31.478 168.741-123.202 168.741-231.564z"/><use xlink:href="#a"/><g stroke="#051360" stroke-miterlimit="10" stroke-width="23" clip-path="url(#c)"><path d="m-73.196 1070.373 370.348-370.349 143.361 143.361-370.349 370.348z" opacity=".25"/><path d="m-135.708 1007.855 370.349-370.349 143.36 143.361-370.349 370.349z" opacity=".25"/></g></g><use fill="none" stroke="#051360" stroke-miterlimit="10" stroke-width="23" xlink:href="#a"/><g fill="#fff"><path stroke="#051360" stroke-miterlimit="10" stroke-width="23" d="m549.309 333.308c0-134.372-108.937-243.308-243.309-243.308s-243.308 108.936-243.308 243.308c0 108.363 70.877 200.085 168.778 231.566l74.53 137.126 74.549-137.107c97.882-31.499 168.76-123.222 168.76-231.585z"/><path stroke="#051360" stroke-miterlimit="10" stroke-width="23" d="m549.309 333.308c0-134.372-108.937-243.308-243.309-243.308s-243.308 108.936-243.308 243.308c0 108.363 70.877 200.085 168.778 231.566l74.53 137.126 74.549-137.107c97.882-31.499 168.76-123.222 168.76-231.585z"/><use xlink:href="#b"/><g stroke="#051360" stroke-miterlimit="10" stroke-width="23" clip-path="url(#d)"><path d="m-73.293 324.693 370.349-370.349 143.36 143.361-370.349 370.349z" opacity=".25"/><path d="m-135.792 262.189 370.349-370.349 143.36 143.36-370.348 370.349z" opacity=".25"/></g></g><use fill="none" stroke="#051360" stroke-miterlimit="10" stroke-width="23" xlink:href="#b"/><path fill="url(#e)" d="m402.026 201.193h-192.053c-18.073 0-32.015 13.942-32.015 32.015v192.072c0 18.072 13.942 32.016 32.015 32.016h192.073c18.073 0 32.015-13.942 32.015-32.016v-192.072c-.019-18.073-13.961-32.015-32.035-32.015zm-95.835 77.743c28.4 0 51.409 22.3 51.409 49.82 0 27.502-23.009 49.821-51.409 49.821-28.382 0-51.408-22.319-51.408-49.821 0-27.52 23.027-49.82 51.408-49.82zm95.835 138.331c0 5.604-2.409 7.995-7.994 7.995h-176.064c-5.584 0-7.995-2.391-7.995-7.995v-112.034l19.948 4.341c-2.142 6.961-3.309 14.325-3.309 21.975 0 42.553 35.649 77.093 79.579 77.093 43.95 0 79.579-34.54 79.579-77.093 0-7.649-1.166-15.013-3.289-21.975l19.564-4.341v112.034zm0-144.049c0 4.417-3.576 7.994-7.994 7.994h-32.015c-4.418 0-7.996-3.577-7.996-7.994v-31.997c0-4.417 3.578-7.994 7.996-7.994h32.015c4.418 0 7.994 3.577 7.994 7.994z"/></svg>