<svg xmlns="http://www.w3.org/2000/svg" xmlns:xlink="http://www.w3.org/1999/xlink" width="612" height="792"><defs><path id="b" d="m549.404 1078.992c0-134.372-108.937-243.309-243.309-243.309-134.373 0-243.308 108.937-243.308 243.309 0 108.362 70.877 200.086 168.778 231.565l74.55 137.106 74.549-137.106c97.862-31.479 168.74-123.203 168.74-231.565z"/><linearGradient id="a"><stop offset="0" stop-color="#00f"/><stop offset="1" stop-color="#051360"/></linearGradient><radialGradient id="f" cx="306.0957" cy="1141.6738" r="276.4318" gradientUnits="userSpaceOnUse" xlink:href="#a"/><clipPath id="g"><use xlink:href="#b"/></clipPath><radialGradient id="h" cx="183.6582" cy="956.8789" r="256.8545" gradientUnits="userSpaceOnUse" xlink:href="#a"/><radialGradient id="i" cx="121.1465" cy="894.3613" r="256.8545" gradientUnits="userSpaceOnUse" xlink:href="#a"/><radialGradient id="j" cx="1051.7793" cy="1141.6738" r="276.4318" gradientUnits="userSpaceOnUse" xlink:href="#a"/><clipPath id="k"><use xlink:href="#c"/></clipPath><radialGradient id="l" cx="866.8096" cy="894.374" r="256.8545" gradientUnits="userSpaceOnUse" xlink:href="#a"/><radialGradient id="m" cx="306" cy="396" r="276.4372" gradientUnits="userSpaceOnUse" xlink:href="#a"/><clipPath id="n"><use xlink:href="#d"/></clipPath><radialGradient id="o" cx="183.5615" cy="211.1992" r="256.8545" gradientUnits="userSpaceOnUse" xlink:href="#a"/><radialGradient id="p" cx="121.0625" cy="148.6943" r="256.8545" gradientUnits="userSpaceOnUse" xlink:href="#a"/><radialGradient id="q" cx="1051.875" cy="396" r="276.4372" gradientUnits="userSpaceOnUse" xlink:href="#a"/><clipPath id="r"><use xlink:href="#e"/></clipPath><radialGradient id="s" cx="866.9336" cy="148.6982" r="256.855" gradientUnits="userSpaceOnUse" xlink:href="#a"/><linearGradient id="t" x1="8.4795" x2="24.4668" y1="780.2207" y2="780.2207" gradientTransform="matrix(19.125 0 0 -19.125 -9.0625 15247.0625)" gradientUnits="userSpaceOnUse"><stop offset="0" stop-color="#fff"/><stop offset="1" stop-color="#c8c8c8"/></linearGradient><path id="c" d="m1295.088 1078.992c0-134.372-108.937-243.309-243.309-243.309s-243.308 108.937-243.308 243.309c0 108.362 70.878 200.086 168.778 231.565l74.55 137.106 74.549-137.106c97.863-31.479 168.74-123.203 168.74-231.565z"/><path id="d" d="m549.309 333.308c0-134.372-108.937-243.308-243.309-243.308s-243.308 108.936-243.308 243.308c0 108.363 70.877 200.085 168.778 231.566l74.53 137.126 74.549-137.107c97.882-31.499 168.76-123.222 168.76-231.585z"/><path id="e" d="m1295.184 333.308c0-134.372-108.937-243.308-243.309-243.308s-243.309 108.936-243.309 243.308c0 108.363 70.878 200.085 168.778 231.566l74.531 137.126 74.549-137.107c97.882-31.499 168.76-123.222 168.76-231.585z"/></defs><use fill="url(#f)" xlink:href="#b"/><g clip-path="url(#g)"><path fill="url(#h)" d="m-73.196 1070.373 370.348-370.349 143.361 143.361-370.349 370.348z" opacity=".25"/><path fill="url(#i)" d="m-135.708 1007.855 370.349-370.349 143.36 143.361-370.349 370.349z" opacity=".25"/></g><use fill="url(#j)" xlink:href="#c"/><g clip-path="url(#k)"><path fill="url(#l)" d="m609.955 1007.868 370.349-370.348 143.36 143.36-370.349 370.349z" opacity=".25"/></g><path fill="url(#m)" d="m549.309 333.308c0-134.372-108.937-243.308-243.309-243.308s-243.308 108.936-243.308 243.308c0 108.363 70.877 200.085 168.778 231.566l74.53 137.126 74.549-137.107c97.882-31.499 168.76-123.222 168.76-231.585z"/><use fill="url(#m)" xlink:href="#d"/><g clip-path="url(#n)"><path fill="url(#o)" d="m-73.293 324.693 370.349-370.349 143.36 143.361-370.349 370.349z" opacity=".25"/><path fill="url(#p)" d="m-135.792 262.189 370.349-370.349 143.36 143.36-370.348 370.349z" opacity=".25"/></g><use fill="url(#q)" xlink:href="#e"/><g clip-path="url(#r)"><path fill="url(#s)" d="m610.079 262.193 370.349-370.349 143.361 143.36-370.35 370.349z" opacity=".25"/></g><path fill="url(#t)" d="m307.932 468.828c-.784 0-1.568-.02-2.333-.058-.498.038-1.014.058-1.53.058-18.111 0-29.739-8.224-40.985-16.161-7.765-5.488-15.089-10.671-23.715-12.105-4.208-.688-8.396-1.052-12.451-1.052-7.306 0-13.062 1.128-17.27 1.95-2.563.497-4.762.938-6.426.938-1.74 0-3.653-.383-4.475-3.194-.708-2.447-1.243-4.8-1.74-7.095-1.282-5.891-2.2-9.506-4.667-9.869-28.726-4.437-36.95-10.48-38.786-14.783-.268-.612-.402-1.225-.44-1.836-.096-1.646 1.071-3.099 2.697-3.366 44.16-7.268 63.973-52.422 64.795-54.334.019-.058.038-.096.077-.153 2.696-5.47 3.232-10.232 1.587-14.133-3.021-7.153-12.909-10.289-19.469-12.355-1.606-.497-3.117-.994-4.322-1.453-13.062-5.164-14.153-10.461-13.636-13.158.879-4.609 7.019-7.803 11.991-7.803 1.358 0 2.563.249 3.576.708 5.872 2.754 11.169 4.15 15.74 4.15 6.311 0 9.065-2.658 9.409-3.002-.153-2.983-.363-6.12-.554-9.333-1.32-20.884-2.945-46.837 3.653-61.64 19.794-44.389 61.792-47.851 74.186-47.851.325 0 5.431-.057 5.431-.057h.728c12.431 0 54.506 3.461 74.319 47.87 6.617 14.822 4.973 40.794 3.653 61.659l-.058.899c-.191 2.907-.363 5.737-.497 8.434.325.325 2.85 2.754 8.567 2.983 4.342-.172 9.353-1.549 14.822-4.131 1.606-.746 3.385-.918 4.609-.918 1.854 0 3.729.363 5.297 1.014l.096.038c4.438 1.568 7.345 4.686 7.401 7.937.058 3.06-2.275 7.65-13.731 12.183-1.186.459-2.696.956-4.303 1.453-6.561 2.085-16.429 5.221-19.47 12.355-1.664 3.901-1.128 8.645 1.568 14.133.02.058.058.096.076.153.822 1.913 20.617 47.048 64.796 54.334 1.626.269 2.792 1.722 2.716 3.366-.038.612-.191 1.243-.459 1.855-1.817 4.265-10.041 10.309-38.786 14.745-2.352.363-3.251 3.424-4.666 9.83-.517 2.333-1.033 4.629-1.74 7.038-.612 2.085-1.913 3.079-4.112 3.079h-.363c-1.529 0-3.69-.268-6.426-.803-4.857-.957-10.327-1.836-17.27-1.836-4.055 0-8.243.363-12.47 1.052-8.625 1.435-15.95 6.598-23.696 12.087-11.205 7.954-22.833 16.178-40.944 16.178z"/></svg>