<?xml version="1.0" encoding="utf-8"?>
<!-- Generator: Adobe Illustrator 16.0.4, SVG Export Plug-In . SVG Version: 6.00 Build 0)  -->
<!DOCTYPE svg PUBLIC "-//W3C//DTD SVG 1.1//EN" "http://www.w3.org/Graphics/SVG/1.1/DTD/svg11.dtd">
<svg version="1.1" id="Layer_1" xmlns="http://www.w3.org/2000/svg" xmlns:xlink="http://www.w3.org/1999/xlink" x="0px" y="0px"
	 width="612px" height="792px" viewBox="0 0 612 792" enable-background="new 0 0 612 792" xml:space="preserve">
<g id="Layer_4_copy_2">
	<g>
		<g>
			<g>
				<defs>
					<path id="SVGID_1_" d="M549.404,1078.992c0-134.372-108.937-243.309-243.309-243.309
						c-134.373,0-243.308,108.937-243.308,243.309c0,108.362,70.877,200.086,168.778,231.565l74.55,137.106l74.549-137.106
						C478.526,1279.078,549.404,1187.354,549.404,1078.992z"/>
				</defs>
				<radialGradient id="SVGID_2_" cx="306.0957" cy="1141.6738" r="276.4318" gradientUnits="userSpaceOnUse">
					<stop  offset="0" style="stop-color:#0000FF"/>
					<stop  offset="1" style="stop-color:#051360"/>
				</radialGradient>
				<use xlink:href="#SVGID_1_"  overflow="visible" fill="url(#SVGID_2_)"/>
				<clipPath id="SVGID_3_">
					<use xlink:href="#SVGID_1_"  overflow="visible"/>
				</clipPath>
				<g clip-path="url(#SVGID_3_)">
					<radialGradient id="SVGID_4_" cx="183.6582" cy="956.8789" r="256.8545" gradientUnits="userSpaceOnUse">
						<stop  offset="0" style="stop-color:#0000FF"/>
						<stop  offset="1" style="stop-color:#051360"/>
					</radialGradient>
					<polygon opacity="0.25" fill="url(#SVGID_4_)" enable-background="new    " points="-73.196,1070.373 297.152,700.024 
						440.513,843.385 70.164,1213.733 					"/>
					<radialGradient id="SVGID_5_" cx="121.1465" cy="894.3613" r="256.8545" gradientUnits="userSpaceOnUse">
						<stop  offset="0" style="stop-color:#0000FF"/>
						<stop  offset="1" style="stop-color:#051360"/>
					</radialGradient>
					<polygon opacity="0.25" fill="url(#SVGID_5_)" enable-background="new    " points="-135.708,1007.855 234.641,637.506 
						378.001,780.867 7.652,1151.216 					"/>
				</g>
			</g>
		</g>
	</g>
	<g>
		<g>
			<g>
				<defs>
					<path id="SVGID_6_" d="M1295.088,1078.992c0-134.372-108.937-243.309-243.309-243.309S808.471,944.62,808.471,1078.992
						c0,108.362,70.878,200.086,168.778,231.565l74.55,137.106l74.549-137.106
						C1224.211,1279.078,1295.088,1187.354,1295.088,1078.992z"/>
				</defs>
				<radialGradient id="SVGID_7_" cx="1051.7793" cy="1141.6738" r="276.4318" gradientUnits="userSpaceOnUse">
					<stop  offset="0" style="stop-color:#0000FF"/>
					<stop  offset="1" style="stop-color:#051360"/>
				</radialGradient>
				<use xlink:href="#SVGID_6_"  overflow="visible" fill="url(#SVGID_7_)"/>
				<clipPath id="SVGID_8_">
					<use xlink:href="#SVGID_6_"  overflow="visible"/>
				</clipPath>
				<g clip-path="url(#SVGID_8_)">
					<radialGradient id="SVGID_9_" cx="866.8096" cy="894.374" r="256.8545" gradientUnits="userSpaceOnUse">
						<stop  offset="0" style="stop-color:#0000FF"/>
						<stop  offset="1" style="stop-color:#051360"/>
					</radialGradient>
					<polygon opacity="0.25" fill="url(#SVGID_9_)" enable-background="new    " points="609.955,1007.868 980.304,637.52 
						1123.664,780.88 753.315,1151.229 					"/>
				</g>
			</g>
		</g>
	</g>
	<g>
		<radialGradient id="SVGID_10_" cx="306" cy="396" r="276.4372" gradientUnits="userSpaceOnUse">
			<stop  offset="0" style="stop-color:#0000FF"/>
			<stop  offset="1" style="stop-color:#051360"/>
		</radialGradient>
		<path fill="url(#SVGID_10_)" d="M549.309,333.308C549.309,198.936,440.372,90,306,90S62.692,198.936,62.692,333.308
			c0,108.363,70.877,200.085,168.778,231.566L306,702l74.549-137.107C478.431,533.394,549.309,441.671,549.309,333.308z"/>
		<g>
			<g>
				<defs>
					<path id="SVGID_11_" d="M549.309,333.308C549.309,198.936,440.372,90,306,90S62.692,198.936,62.692,333.308
						c0,108.363,70.877,200.085,168.778,231.566L306,702l74.549-137.107C478.431,533.394,549.309,441.671,549.309,333.308z"/>
				</defs>
				<radialGradient id="SVGID_12_" cx="306" cy="396" r="276.4372" gradientUnits="userSpaceOnUse">
					<stop  offset="0" style="stop-color:#0000FF"/>
					<stop  offset="1" style="stop-color:#051360"/>
				</radialGradient>
				<use xlink:href="#SVGID_11_"  overflow="visible" fill="url(#SVGID_12_)"/>
				<clipPath id="SVGID_13_">
					<use xlink:href="#SVGID_11_"  overflow="visible"/>
				</clipPath>
				<g clip-path="url(#SVGID_13_)">
					<radialGradient id="SVGID_14_" cx="183.5615" cy="211.1992" r="256.8545" gradientUnits="userSpaceOnUse">
						<stop  offset="0" style="stop-color:#0000FF"/>
						<stop  offset="1" style="stop-color:#051360"/>
					</radialGradient>
					<polygon opacity="0.25" fill="url(#SVGID_14_)" enable-background="new    " points="-73.293,324.693 297.056,-45.656 
						440.416,97.705 70.067,468.054 					"/>
					<radialGradient id="SVGID_15_" cx="121.0625" cy="148.6943" r="256.8545" gradientUnits="userSpaceOnUse">
						<stop  offset="0" style="stop-color:#0000FF"/>
						<stop  offset="1" style="stop-color:#051360"/>
					</radialGradient>
					<polygon opacity="0.25" fill="url(#SVGID_15_)" enable-background="new    " points="-135.792,262.189 234.557,-108.16 
						377.917,35.2 7.569,405.549 					"/>
				</g>
			</g>
		</g>
	</g>
	<g>
		<g>
			<g>
				<defs>
					<path id="SVGID_16_" d="M1295.184,333.308C1295.184,198.936,1186.247,90,1051.875,90S808.566,198.936,808.566,333.308
						c0,108.363,70.878,200.085,168.778,231.566L1051.875,702l74.549-137.107C1224.306,533.394,1295.184,441.671,1295.184,333.308z"
						/>
				</defs>
				<radialGradient id="SVGID_17_" cx="1051.875" cy="396" r="276.4372" gradientUnits="userSpaceOnUse">
					<stop  offset="0" style="stop-color:#0000FF"/>
					<stop  offset="1" style="stop-color:#051360"/>
				</radialGradient>
				<use xlink:href="#SVGID_16_"  overflow="visible" fill="url(#SVGID_17_)"/>
				<clipPath id="SVGID_18_">
					<use xlink:href="#SVGID_16_"  overflow="visible"/>
				</clipPath>
				<g clip-path="url(#SVGID_18_)">
					<radialGradient id="SVGID_19_" cx="866.9336" cy="148.6982" r="256.855" gradientUnits="userSpaceOnUse">
						<stop  offset="0" style="stop-color:#0000FF"/>
						<stop  offset="1" style="stop-color:#051360"/>
					</radialGradient>
					<polygon opacity="0.25" fill="url(#SVGID_19_)" enable-background="new    " points="610.079,262.193 980.428,-108.156 
						1123.789,35.204 753.439,405.553 					"/>
				</g>
			</g>
		</g>
	</g>
</g>
<g id="Official_copy_2">
	
		<linearGradient id="SVGID_20_" gradientUnits="userSpaceOnUse" x1="8.4795" y1="780.2207" x2="24.4668" y2="780.2207" gradientTransform="matrix(19.125 0 0 -19.125 -9.0625 15247.0625)">
		<stop  offset="0" style="stop-color:#FFFFFF"/>
		<stop  offset="1" style="stop-color:#C8C8C8"/>
	</linearGradient>
	<path fill="url(#SVGID_20_)" d="M307.932,468.828c-0.784,0-1.568-0.02-2.333-0.058l0,0c-0.498,0.038-1.014,0.058-1.53,0.058
		c-18.111,0-29.739-8.224-40.985-16.161c-7.765-5.488-15.089-10.671-23.715-12.105c-4.208-0.688-8.396-1.052-12.451-1.052
		c-7.306,0-13.062,1.128-17.27,1.95c-2.563,0.497-4.762,0.938-6.426,0.938c-1.74,0-3.653-0.383-4.475-3.194
		c-0.708-2.447-1.243-4.8-1.74-7.095c-1.282-5.891-2.2-9.506-4.667-9.869c-28.726-4.437-36.95-10.48-38.786-14.783
		c-0.268-0.612-0.402-1.225-0.44-1.836c-0.096-1.646,1.071-3.099,2.697-3.366c44.16-7.268,63.973-52.422,64.795-54.334
		c0.019-0.058,0.038-0.096,0.077-0.153c2.696-5.47,3.232-10.232,1.587-14.133c-3.021-7.153-12.909-10.289-19.469-12.355
		c-1.606-0.497-3.117-0.994-4.322-1.453c-13.062-5.164-14.153-10.461-13.636-13.158c0.879-4.609,7.019-7.803,11.991-7.803
		c1.358,0,2.563,0.249,3.576,0.708c5.872,2.754,11.169,4.15,15.74,4.15c6.311,0,9.065-2.658,9.409-3.002
		c-0.153-2.983-0.363-6.12-0.554-9.333c-1.32-20.884-2.945-46.837,3.653-61.64c19.794-44.389,61.792-47.851,74.186-47.851
		c0.325,0,5.431-0.057,5.431-0.057h0.728c12.431,0,54.506,3.461,74.319,47.87c6.617,14.822,4.973,40.794,3.653,61.659l-0.058,0.899
		c-0.191,2.907-0.363,5.737-0.497,8.434c0.325,0.325,2.85,2.754,8.567,2.983l0,0c4.342-0.172,9.353-1.549,14.822-4.131
		c1.606-0.746,3.385-0.918,4.609-0.918c1.854,0,3.729,0.363,5.297,1.014l0.096,0.038c4.438,1.568,7.345,4.686,7.401,7.937
		c0.058,3.06-2.275,7.65-13.731,12.183c-1.186,0.459-2.696,0.956-4.303,1.453c-6.561,2.085-16.429,5.221-19.47,12.355
		c-1.664,3.901-1.128,8.645,1.568,14.133c0.02,0.058,0.058,0.096,0.076,0.153c0.822,1.913,20.617,47.048,64.796,54.334
		c1.626,0.269,2.792,1.722,2.716,3.366c-0.038,0.612-0.191,1.243-0.459,1.855c-1.817,4.265-10.041,10.309-38.786,14.745
		c-2.352,0.363-3.251,3.424-4.666,9.83c-0.517,2.333-1.033,4.629-1.74,7.038c-0.612,2.085-1.913,3.079-4.112,3.079h-0.363
		c-1.529,0-3.69-0.268-6.426-0.803c-4.857-0.957-10.327-1.836-17.27-1.836c-4.055,0-8.243,0.363-12.47,1.052
		c-8.625,1.435-15.95,6.598-23.696,12.087C337.671,460.604,326.043,468.828,307.932,468.828z"/>
</g>
</svg>
