<svg xmlns="http://www.w3.org/2000/svg" xmlns:xlink="http://www.w3.org/1999/xlink" width="612" height="792"><defs><path id="a" d="m549.404 1078.992c0-134.372-108.938-243.31-243.31-243.31-134.373 0-243.308 108.938-243.308 243.31 0 108.361 70.877 200.086 168.778 231.564l74.55 137.106 74.549-137.106c97.863-31.478 168.741-123.202 168.741-231.564z"/><clipPath id="e"><use xlink:href="#a"/></clipPath><clipPath id="f"><use xlink:href="#b"/></clipPath><clipPath id="g"><use xlink:href="#c"/></clipPath><clipPath id="h"><use xlink:href="#d"/></clipPath><radialGradient id="i" cx="305.9883" cy="325.3345" r="148.2611" gradientUnits="userSpaceOnUse"><stop offset="0" stop-color="#00f"/><stop offset="1" stop-color="#051360"/></radialGradient><path id="b" d="m1295.088 1078.992c0-134.372-108.937-243.31-243.309-243.31s-243.309 108.938-243.309 243.31c0 108.361 70.878 200.086 168.778 231.564l74.55 137.106 74.549-137.106c97.864-31.478 168.741-123.202 168.741-231.564z"/><path id="c" d="m549.309 333.308c0-134.372-108.937-243.308-243.309-243.308s-243.308 108.936-243.308 243.308c0 108.363 70.877 200.085 168.778 231.566l74.53 137.126 74.549-137.107c97.882-31.499 168.76-123.222 168.76-231.585z"/><path id="d" d="m1295.184 333.308c0-134.372-108.937-243.308-243.309-243.308s-243.309 108.936-243.309 243.308c0 108.363 70.878 200.085 168.777 231.566l74.532 137.126 74.549-137.107c97.882-31.499 168.76-123.222 168.76-231.585z"/></defs><g fill="#fff"><path stroke="#051360" stroke-miterlimit="10" stroke-width="23" d="m549.404 1078.992c0-134.372-108.938-243.31-243.31-243.31-134.373 0-243.308 108.938-243.308 243.31 0 108.361 70.877 200.086 168.778 231.564l74.55 137.106 74.549-137.106c97.863-31.478 168.741-123.202 168.741-231.564z"/><use xlink:href="#a"/><g stroke="#051360" stroke-miterlimit="10" stroke-width="23" clip-path="url(#e)"><path d="m-73.196 1070.373 370.348-370.349 143.361 143.361-370.349 370.348z" opacity=".25"/><path d="m-135.708 1007.855 370.349-370.349 143.36 143.361-370.349 370.349z" opacity=".25"/></g></g><use fill="none" stroke="#051360" stroke-miterlimit="10" stroke-width="23" xlink:href="#a"/><path fill="#fff" stroke="#051360" stroke-miterlimit="10" stroke-width="23" d="m1295.088 1078.992c0-134.372-108.937-243.31-243.309-243.31s-243.309 108.938-243.309 243.31c0 108.361 70.878 200.086 168.778 231.564l74.55 137.106 74.549-137.106c97.864-31.478 168.741-123.202 168.741-231.564z"/><use fill="#fff" xlink:href="#b"/><g clip-path="url(#f)"><path fill="#fff" stroke="#051360" stroke-miterlimit="10" stroke-width="23" d="m609.955 1007.868 370.349-370.348 143.36 143.36-370.349 370.349z" opacity=".25"/></g><use fill="none" stroke="#051360" stroke-miterlimit="10" stroke-width="23" xlink:href="#b"/><g fill="#fff"><path stroke="#051360" stroke-miterlimit="10" stroke-width="23" d="m549.309 333.308c0-134.372-108.937-243.308-243.309-243.308s-243.308 108.936-243.308 243.308c0 108.363 70.877 200.085 168.778 231.566l74.53 137.126 74.549-137.107c97.882-31.499 168.76-123.222 168.76-231.585z"/><path stroke="#051360" stroke-miterlimit="10" stroke-width="23" d="m549.309 333.308c0-134.372-108.937-243.308-243.309-243.308s-243.308 108.936-243.308 243.308c0 108.363 70.877 200.085 168.778 231.566l74.53 137.126 74.549-137.107c97.882-31.499 168.76-123.222 168.76-231.585z"/><use xlink:href="#c"/><g stroke="#051360" stroke-miterlimit="10" stroke-width="23" clip-path="url(#g)"><path d="m-73.293 324.693 370.349-370.349 143.36 143.361-370.349 370.349z" opacity=".25"/><path d="m-135.792 262.189 370.349-370.349 143.36 143.36-370.348 370.349z" opacity=".25"/></g></g><use fill="none" stroke="#051360" stroke-miterlimit="10" stroke-width="23" xlink:href="#c"/><path fill="#fff" stroke="#051360" stroke-miterlimit="10" stroke-width="23" d="m1295.184 333.308c0-134.372-108.937-243.308-243.309-243.308s-243.309 108.936-243.309 243.308c0 108.363 70.878 200.085 168.777 231.566l74.532 137.126 74.549-137.107c97.882-31.499 168.76-123.222 168.76-231.585z"/><use fill="#fff" xlink:href="#d"/><g clip-path="url(#h)"><path fill="#fff" stroke="#051360" stroke-miterlimit="10" stroke-width="23" d="m610.079 262.193 370.349-370.349 143.361 143.36-370.35 370.349z" opacity=".25"/></g><use fill="none" stroke="#051360" stroke-miterlimit="10" stroke-width="23" xlink:href="#d"/><path fill="url(#i)" d="m307.932 468.828c-.783 0-1.567-.021-2.333-.059-.498.038-1.014.059-1.53.059-18.111 0-29.739-8.225-40.985-16.161-7.765-5.488-15.089-10.671-23.715-12.105-4.208-.688-8.396-1.052-12.451-1.052-7.306 0-13.062 1.128-17.27 1.95-2.563.497-4.762.938-6.426.938-1.74 0-3.653-.384-4.475-3.194-.708-2.447-1.243-4.8-1.74-7.095-1.282-5.892-2.2-9.507-4.667-9.869-28.726-4.438-36.95-10.48-38.786-14.783-.268-.612-.402-1.225-.44-1.836-.096-1.646 1.071-3.099 2.697-3.366 44.16-7.268 63.973-52.422 64.795-54.334.019-.058.038-.096.077-.153 2.696-5.47 3.232-10.231 1.587-14.133-3.021-7.152-12.909-10.289-19.469-12.354-1.606-.497-3.117-.994-4.322-1.453-13.062-5.164-14.153-10.461-13.636-13.158.879-4.609 7.019-7.803 11.991-7.803 1.358 0 2.563.249 3.576.708 5.872 2.754 11.169 4.15 15.74 4.15 6.311 0 9.065-2.658 9.409-3.002-.153-2.983-.363-6.12-.554-9.333-1.32-20.884-2.945-46.837 3.653-61.64 19.794-44.389 61.792-47.851 74.186-47.851.325 0 5.432-.057 5.432-.057h.728c12.431 0 54.506 3.461 74.319 47.87 6.617 14.822 4.973 40.794 3.652 61.659l-.058.899c-.19 2.907-.363 5.737-.497 8.434.325.325 2.85 2.754 8.566 2.983 4.343-.172 9.354-1.549 14.822-4.131 1.606-.746 3.386-.918 4.609-.918 1.854 0 3.729.363 5.297 1.014l.096.038c4.438 1.568 7.346 4.686 7.401 7.937.058 3.06-2.275 7.65-13.731 12.183-1.186.459-2.695.956-4.303 1.453-6.561 2.085-16.429 5.222-19.47 12.355-1.664 3.9-1.128 8.645 1.567 14.133.021.058.059.096.076.153.822 1.913 20.617 47.048 64.796 54.334 1.626.269 2.792 1.722 2.717 3.365-.038.612-.191 1.243-.459 1.855-1.817 4.265-10.041 10.309-38.786 14.745-2.353.363-3.251 3.424-4.666 9.83-.518 2.333-1.033 4.629-1.74 7.038-.612 2.085-1.913 3.079-4.112 3.079h-.362c-1.529 0-3.69-.269-6.427-.804-4.856-.957-10.327-1.836-17.27-1.836-4.056 0-8.243.363-12.47 1.052-8.625 1.436-15.95 6.599-23.696 12.088-11.204 7.954-22.832 16.178-40.943 16.178z"/></svg>