<svg xmlns="http://www.w3.org/2000/svg" xmlns:xlink="http://www.w3.org/1999/xlink" width="612" height="792"><defs><path id="a" d="m549.309 333.308c0-134.372-108.937-243.308-243.309-243.308s-243.308 108.936-243.308 243.308c0 108.363 70.877 200.085 168.778 231.566l74.53 137.126 74.549-137.107c97.882-31.499 168.76-123.222 168.76-231.585z"/><clipPath id="e"><use xlink:href="#a"/></clipPath><clipPath id="f"><use xlink:href="#b"/></clipPath><clipPath id="g"><use xlink:href="#c"/></clipPath><clipPath id="h"><use xlink:href="#d"/></clipPath><radialGradient id="i" cx="311.1084" cy="326.5732" r="127.3334" gradientUnits="userSpaceOnUse"><stop offset="0" stop-color="#0513ff"/><stop offset="1" stop-color="#051360"/></radialGradient><path id="b" d="m549.309 1079.279c0-134.373-108.937-243.31-243.309-243.31s-243.308 108.937-243.308 243.31c0 108.36 70.877 200.085 168.778 231.564l74.53 137.128 74.549-137.106c97.882-31.501 168.76-123.224 168.76-231.586z"/><path id="c" d="m1295.184 1079.279c0-134.373-108.937-243.31-243.309-243.31s-243.309 108.937-243.309 243.31c0 108.36 70.878 200.085 168.777 231.564l74.53 137.126 74.549-137.106c97.884-31.499 168.762-123.222 168.762-231.584z"/><path id="d" d="m1295.088 333.308c0-134.372-108.937-243.308-243.309-243.308s-243.308 108.936-243.308 243.308c0 108.363 70.878 200.085 168.778 231.566l74.53 137.126 74.549-137.107c97.883-31.499 168.76-123.222 168.76-231.585z"/></defs><g fill="#fff"><path stroke="#051360" stroke-miterlimit="10" stroke-width="23" d="m549.309 333.308c0-134.372-108.937-243.308-243.309-243.308s-243.308 108.936-243.308 243.308c0 108.363 70.877 200.085 168.778 231.566l74.53 137.126 74.549-137.107c97.882-31.499 168.76-123.222 168.76-231.585z"/><path stroke="#051360" stroke-miterlimit="10" stroke-width="23" d="m549.309 333.308c0-134.372-108.937-243.308-243.309-243.308s-243.308 108.936-243.308 243.308c0 108.363 70.877 200.085 168.778 231.566l74.53 137.126 74.549-137.107c97.882-31.499 168.76-123.222 168.76-231.585z"/><use xlink:href="#a"/><g stroke="#051360" stroke-miterlimit="10" stroke-width="23" clip-path="url(#e)"><path d="m-73.293 324.693 370.349-370.349 143.36 143.361-370.349 370.349z" opacity=".25"/><path d="m-135.792 262.189 370.349-370.349 143.36 143.36-370.348 370.349z" opacity=".25"/></g></g><use fill="none" stroke="#051360" stroke-miterlimit="10" stroke-width="23" xlink:href="#a"/><g fill="#fff"><path stroke="#051360" stroke-miterlimit="10" stroke-width="23" d="m549.309 1079.279c0-134.373-108.937-243.31-243.309-243.31s-243.308 108.937-243.308 243.31c0 108.36 70.877 200.085 168.778 231.564l74.53 137.128 74.549-137.106c97.882-31.501 168.76-123.224 168.76-231.586z"/><use xlink:href="#b"/><g stroke="#051360" stroke-miterlimit="10" stroke-width="23" clip-path="url(#f)"><path d="m-73.302 1070.66 370.349-370.348 143.36 143.36-370.348 370.349z" opacity=".25"/><path d="m-135.799 1008.154 370.349-370.348 143.36 143.36-370.348 370.349z" opacity=".25"/></g></g><use fill="none" stroke="#051360" stroke-miterlimit="10" stroke-width="23" xlink:href="#b"/><path fill="#fff" stroke="#051360" stroke-miterlimit="10" stroke-width="23" d="m1295.184 1079.279c0-134.373-108.937-243.31-243.309-243.31s-243.309 108.937-243.309 243.31c0 108.36 70.878 200.085 168.777 231.564l74.53 137.126 74.549-137.106c97.884-31.499 168.762-123.222 168.762-231.584z"/><use fill="#fff" xlink:href="#c"/><g clip-path="url(#g)"><path fill="#fff" stroke="#051360" stroke-miterlimit="10" stroke-width="23" d="m610.07 1008.16 370.349-370.348 143.36 143.36-370.348 370.349z" opacity=".25"/></g><use fill="none" stroke="#051360" stroke-miterlimit="10" stroke-width="23" xlink:href="#c"/><path fill="#fff" stroke="#051360" stroke-miterlimit="10" stroke-width="23" d="m1295.088 333.308c0-134.372-108.937-243.308-243.309-243.308s-243.308 108.936-243.308 243.308c0 108.363 70.878 200.085 168.778 231.566l74.53 137.126 74.549-137.107c97.883-31.499 168.76-123.222 168.76-231.585z"/><use fill="#fff" xlink:href="#d"/><g clip-path="url(#h)"><path fill="#fff" stroke="#051360" stroke-miterlimit="10" stroke-width="23" d="m609.97 262.205 370.348-370.349 143.361 143.361-370.349 370.348z" opacity=".25"/></g><use fill="none" stroke="#051360" stroke-miterlimit="10" stroke-width="23" xlink:href="#d"/><path fill="url(#i)" d="m346.182 214.465c-25.054 9.123-40.889 32.627-39.092 58.37l.612 9.926-10.021-1.224c-36.472-4.667-68.353-20.464-95.434-47.029l-13.235-13.139-3.404 9.715c-7.21 21.688-2.601 44.6 12.432 59.995 8.013 8.511 6.215 9.735-7.612 4.667-4.82-1.625-9.027-2.831-9.429-2.237-1.396 1.434 3.404 19.871 7.21 27.157 5.221 10.136 15.835 20.062 27.464 25.953l9.83 4.667-11.628.21c-11.227 0-11.628.21-10.423 4.475 4.016 13.178 19.852 27.158 37.485 33.239l12.432 4.246-10.825 6.483c-16.027 9.332-34.884 14.593-53.722 14.993-9.027.211-16.448 1.015-16.448 1.626 0 2.027 24.461 13.368 38.69 17.824 42.706 13.177 93.426 7.497 131.522-14.994 27.062-16.008 54.124-47.832 66.766-78.661 6.827-16.408 13.637-46.416 13.637-60.797 0-9.333.611-10.538 11.818-21.688 6.617-6.483 12.833-13.579 14.038-15.606 2.008-3.863 1.798-3.863-8.415-.421-17.041 6.082-19.449 5.278-11.017-3.844 6.216-6.483 13.637-18.245 13.637-21.688 0-.612-3.003.401-6.426 2.238-3.615 2.027-11.628 5.068-17.634 6.885l-10.824 3.461-9.831-6.693c-5.412-3.653-13.022-7.708-17.04-8.913-10.251-2.829-25.897-2.428-35.113.804z"/></svg>