<?xml version="1.0" encoding="utf-8"?>
<!-- Generator: Adobe Illustrator 16.0.4, SVG Export Plug-In . SVG Version: 6.00 Build 0)  -->
<!DOCTYPE svg PUBLIC "-//W3C//DTD SVG 1.1//EN" "http://www.w3.org/Graphics/SVG/1.1/DTD/svg11.dtd">
<svg version="1.1" id="Layer_1" xmlns="http://www.w3.org/2000/svg" xmlns:xlink="http://www.w3.org/1999/xlink" x="0px" y="0px"
	 width="10px" height="10px" viewBox="0 0 10 10" enable-background="new 0 0 10 10" xml:space="preserve">
<g>
	<circle fill="none" stroke="#051360" stroke-miterlimit="10" cx="94.277" cy="4.504" r="2.875"/>
	<path fill="none" stroke="#FFFFFF" stroke-miterlimit="10" d="M95.777,4.496"/>
	<path fill="none" stroke="#FFFFFF" stroke-miterlimit="10" d="M92.777,4.512"/>
</g>
<g>
	<path fill="#051360" d="M92.865,4.541c0,0,0.049-0.276,0.137-0.413c0.087-0.126,0.214-0.071,0.365-0.117
		c0.303-0.048,0.706-0.052,1.109-0.04c0.403,0.019,0.81,0.037,1.11,0.051c0.075,0.001,0.146,0.013,0.207,0.022
		c0.062,0.01,0.115,0.044,0.159,0.028c0.045,0.036,0.08,0.2,0.104,0.282c0.023,0.109,0.037,0.167,0.037,0.167
		S96.08,4.58,96.059,4.689c-0.022,0.082-0.058,0.246-0.102,0.283c-0.045-0.016-0.098,0.019-0.159,0.03
		c-0.062,0.01-0.131,0.023-0.207,0.025c-0.303,0.018-0.707,0.041-1.11,0.064c-0.402,0.018-0.808,0.018-1.109-0.026
		c-0.15-0.044-0.275,0.013-0.366-0.113C92.917,4.816,92.865,4.542,92.865,4.541z"/>
</g>
<g>
	<path fill="#051360" d="M96.081,6.083c0,0,0.243-0.144,0.413-0.16c0.164-0.009,0.224,0.138,0.378,0.238
		c0.276,0.229,0.601,0.578,0.912,0.938c0.308,0.361,0.616,0.727,0.847,0.998c0.061,0.065,0.105,0.135,0.148,0.193
		c0.041,0.062,0.059,0.13,0.104,0.157c0.01,0.062-0.084,0.204-0.125,0.278c-0.061,0.097-0.094,0.146-0.094,0.146
		s-0.055,0.027-0.15,0.083c-0.078,0.034-0.229,0.116-0.289,0.103c-0.023-0.049-0.094-0.069-0.148-0.117
		c-0.057-0.047-0.121-0.098-0.184-0.162c-0.254-0.252-0.594-0.586-0.932-0.922c-0.335-0.338-0.654-0.688-0.863-0.98
		c-0.09-0.161-0.229-0.23-0.209-0.395C95.919,6.314,96.081,6.083,96.081,6.083z"/>
</g>
<circle fill="none" stroke="#051360" stroke-miterlimit="10" cx="64.289" cy="4.234" r="2.875"/>
<g>
	<path fill="#051360" d="M66.081,6.083c0,0,0.243-0.144,0.413-0.16c0.164-0.009,0.224,0.138,0.378,0.238
		c0.276,0.229,0.601,0.578,0.912,0.938c0.308,0.361,0.616,0.727,0.847,0.998c0.061,0.065,0.105,0.135,0.148,0.193
		c0.041,0.062,0.059,0.13,0.104,0.157c0.01,0.062-0.084,0.204-0.125,0.278c-0.061,0.097-0.094,0.146-0.094,0.146
		s-0.055,0.027-0.15,0.083c-0.078,0.034-0.229,0.116-0.289,0.103c-0.023-0.049-0.094-0.069-0.148-0.117
		c-0.057-0.047-0.121-0.098-0.184-0.162c-0.254-0.252-0.594-0.586-0.932-0.922c-0.335-0.338-0.654-0.688-0.863-0.98
		c-0.09-0.161-0.229-0.23-0.209-0.395C65.919,6.314,66.081,6.083,66.081,6.083z"/>
</g>
<g>
	<path fill="#051360" d="M62.865,4.541c0,0,0.049-0.276,0.137-0.413c0.087-0.126,0.214-0.071,0.365-0.117
		c0.303-0.048,0.706-0.052,1.109-0.04c0.403,0.019,0.81,0.037,1.11,0.051c0.075,0.001,0.146,0.013,0.207,0.022
		c0.062,0.01,0.115,0.044,0.159,0.028c0.045,0.036,0.08,0.2,0.104,0.282c0.023,0.109,0.037,0.167,0.037,0.167
		S66.08,4.58,66.059,4.689c-0.022,0.082-0.058,0.246-0.102,0.283c-0.045-0.016-0.098,0.019-0.159,0.03
		c-0.062,0.01-0.131,0.023-0.207,0.025c-0.303,0.018-0.707,0.041-1.11,0.064c-0.402,0.018-0.808,0.018-1.109-0.026
		c-0.15-0.044-0.275,0.013-0.366-0.113C62.917,4.816,62.865,4.542,62.865,4.541z"/>
</g>
<g>
	<path fill="#051360" d="M64.451,2.916c0,0,0.275,0.045,0.415,0.131c0.128,0.086,0.073,0.213,0.12,0.364
		c0.054,0.302,0.062,0.706,0.056,1.11c-0.015,0.404-0.026,0.809-0.037,1.112c0,0.076-0.011,0.145-0.021,0.207
		C64.977,5.902,64.941,5.956,64.96,6c-0.036,0.045-0.199,0.083-0.28,0.107c-0.109,0.024-0.166,0.039-0.166,0.039
		s-0.06-0.013-0.168-0.032c-0.082-0.022-0.248-0.054-0.285-0.097c0.018-0.045-0.021-0.1-0.031-0.16
		c-0.012-0.062-0.023-0.129-0.026-0.205c-0.021-0.303-0.051-0.708-0.079-1.11c-0.021-0.403-0.027-0.807,0.014-1.111
		c0.041-0.152-0.019-0.277,0.106-0.368C64.177,2.971,64.451,2.916,64.451,2.916z"/>
</g>
<g>
	<circle fill="none" stroke="#051360" stroke-miterlimit="10" cx="34.01" cy="4.073" r="2.875"/>
	<g>
		<path fill="#051360" d="M36.141,5.811c0,0,0.781,0.629,1.533,1.297c0.379,0.33,0.758,0.658,1.043,0.906
			c0.148,0.115,0.236,0.254,0.295,0.354c0.066,0.09,0.049,0.209,0.049,0.209l-0.39,0.448c0,0-0.114,0.037-0.214-0.018
			C38.35,8.967,38.199,8.9,38.062,8.77c-0.285-0.244-0.668-0.57-1.049-0.897c-0.771-0.646-1.511-1.327-1.511-1.326L36.141,5.811z"/>
	</g>
</g>
<g>
	<path fill="#051360" d="M-26.637,8.178c-0.234-0.371-0.21-0.486-0.148-0.562c0.046-0.093,0.102-0.175,0.168-0.246
		c0.132-0.146,0.304-0.25,0.451-0.378c0.285-0.268,0.389-0.549,0.668-0.82L-24,4.522v0.681c0-0.514-1.006-1.063-1.539-1.647
		c-0.268-0.292-0.449-0.586-0.706-0.888l-0.341-0.456c-0.113-0.167-0.312-0.227-0.113-0.706c0.479-0.199,0.55,0.021,0.716,0.133
		l0.462,0.383c0.302,0.258,0.598,0.523,0.89,0.791c0.584,0.535,1.136,1.104,1.649,1.708l0.312,0.367l-0.311,0.315L-24.63,6.87
		c-0.272,0.278-0.554,0.552-0.82,0.837c-0.128,0.146-0.232,0.318-0.378,0.45c-0.071,0.067-0.153,0.122-0.246,0.169
		C-26.15,8.389-26.265,8.412-26.637,8.178z"/>
</g>
<g>
	<path fill="#051360" d="M-51.665,6.479c-0.372,0.234-0.486,0.211-0.562,0.148c-0.093-0.046-0.175-0.102-0.246-0.168
		c-0.146-0.132-0.25-0.303-0.378-0.451c-0.267-0.285-0.548-0.31-0.82-0.589L-55.32,4h0.682c-0.515,0-1.063,0.927-1.648,1.461
		c-0.292,0.268-0.586,0.409-0.888,0.666l-0.456,0.321c-0.166,0.112-0.227,0.302-0.705,0.103c-0.199-0.479,0.021-0.555,0.134-0.721
		l0.383-0.463c0.258-0.302,0.523-0.6,0.79-0.892c0.535-0.584,1.104-1.135,1.709-1.649l0.366-0.312l0.315,0.311l1.666,1.647
		c0.279,0.273,0.552,0.554,0.837,0.82c0.147,0.128,0.319,0.233,0.451,0.378c0.066,0.071,0.122,0.153,0.168,0.246
		C-51.455,5.992-51.431,6.105-51.665,6.479z"/>
</g>
<g>
	<path fill="#051360" d="M-88.335,3.206c0.372-0.234,0.486-0.21,0.563-0.148c0.092,0.046,0.174,0.102,0.246,0.168
		c0.145,0.131,0.25,0.303,0.378,0.45c0.267,0.286,0.547,0.468,0.82,0.748L-84.68,6h-0.681c0.514,0,1.063-1.084,1.647-1.619
		c0.292-0.267,0.586-0.488,0.888-0.746l0.456-0.36c0.167-0.113,0.227-0.321,0.706-0.122c0.199,0.479-0.021,0.545-0.134,0.711
		l-0.383,0.458c-0.258,0.302-0.523,0.597-0.791,0.889c-0.535,0.584-1.104,1.135-1.708,1.646l-0.367,0.312l-0.315-0.312l-1.666-1.647
		c-0.28-0.273-0.551-0.554-0.837-0.82c-0.147-0.128-0.319-0.233-0.45-0.378c-0.067-0.071-0.123-0.153-0.168-0.246
		C-88.545,3.692-88.569,3.578-88.335,3.206z"/>
</g>
<rect x="103.667" y="45.667" fill="#051360" width="237" height="64"/>
<g>
	<path fill="#FFFFFF" d="M121.665,3.206c0.384-0.246,0.499-0.223,0.576-0.162c0.093,0.045,0.176,0.101,0.247,0.167
		c0.146,0.131,0.248,0.304,0.377,0.452c0.267,0.286,0.547,0.475,0.82,0.754L125.333,6h-0.707c0.513,0,1.062-1.093,1.646-1.626
		c0.293-0.267,0.588-0.49,0.892-0.747l0.457-0.36c0.168-0.112,0.228-0.324,0.717-0.112c0.212,0.492-0.011,0.554-0.123,0.721
		l-0.382,0.46c-0.257,0.303-0.521,0.598-0.788,0.891c-0.534,0.583-1.104,1.134-1.71,1.646l-0.382,0.322l-0.325-0.321l-1.667-1.647
		c-0.278-0.273-0.551-0.554-0.837-0.82c-0.146-0.128-0.321-0.231-0.452-0.376c-0.065-0.072-0.122-0.154-0.167-0.248
		C121.441,3.705,121.419,3.589,121.665,3.206z"/>
</g>
<g>
	<circle fill="none" stroke="#FFFFFF" stroke-miterlimit="10" cx="244.01" cy="4.073" r="2.875"/>
	<g>
		<path fill="#FFFFFF" d="M246.148,5.799c0,0,0.783,0.629,1.535,1.297c0.379,0.329,0.758,0.659,1.043,0.906
			c0.146,0.115,0.233,0.255,0.293,0.355c0.064,0.092,0.045,0.213,0.045,0.213l-0.399,0.463c0.001,0-0.116,0.039-0.216-0.014
			c-0.109-0.043-0.26-0.107-0.396-0.238c-0.285-0.245-0.668-0.571-1.05-0.898c-0.771-0.645-1.508-1.326-1.508-1.326L246.148,5.799z"
			/>
	</g>
</g>
<circle fill="none" stroke="#FFFFFF" stroke-miterlimit="10" cx="274.289" cy="4.234" r="2.875"/>
<path fill="none" stroke="#FFFFFF" stroke-miterlimit="10" d="M274.5,3"/>
<path fill="none" stroke="#FFFFFF" stroke-miterlimit="10" d="M274.5,6"/>
<path fill="none" stroke="#FFFFFF" stroke-miterlimit="10" d="M276,4.5"/>
<path fill="none" stroke="#FFFFFF" stroke-miterlimit="10" d="M273,4.5"/>
<path fill="none" stroke="#FFFFFF" stroke-width="0.8442" stroke-miterlimit="10" d="M276.164,6.328"/>
<g>
	<circle fill="none" stroke="#FFFFFF" stroke-miterlimit="10" cx="304.277" cy="4.504" r="2.875"/>
	<path fill="none" stroke="#FFFFFF" stroke-miterlimit="10" d="M305.777,4.496"/>
	<path fill="none" stroke="#FFFFFF" stroke-miterlimit="10" d="M302.777,4.512"/>
</g>
<g>
	<path fill="#FFFFFF" d="M302.865,4.541c0,0,0.049-0.229,0.137-0.341c0.088-0.106,0.215-0.056,0.365-0.09
		c0.303-0.044,0.707-0.053,1.111-0.042c0.402,0.015,0.808,0.03,1.109,0.042c0.075,0.001,0.146,0.011,0.206,0.019
		c0.062,0.008,0.115,0.037,0.16,0.023c0.044,0.03,0.079,0.166,0.104,0.232c0.023,0.09,0.036,0.139,0.036,0.139
		s-0.013,0.048-0.034,0.139c-0.022,0.067-0.059,0.204-0.103,0.234c-0.044-0.013-0.099,0.016-0.159,0.025
		c-0.062,0.008-0.131,0.019-0.207,0.021c-0.303,0.015-0.706,0.035-1.109,0.055c-0.402,0.016-0.809,0.012-1.109-0.029
		c-0.152-0.033-0.278,0.019-0.367-0.086C302.917,4.768,302.865,4.541,302.865,4.541z"/>
</g>
<g>
	<path fill="#FFFFFF" d="M302.865,4.541c0,0,0.049-0.229,0.137-0.341c0.088-0.106,0.215-0.056,0.365-0.09
		c0.303-0.044,0.707-0.053,1.111-0.042c0.402,0.015,0.808,0.03,1.109,0.042c0.075,0.001,0.146,0.011,0.206,0.019
		c0.062,0.008,0.115,0.037,0.16,0.023c0.044,0.03,0.079,0.166,0.104,0.232c0.023,0.09,0.036,0.139,0.036,0.139
		s-0.013,0.048-0.034,0.139c-0.022,0.067-0.059,0.204-0.103,0.234c-0.044-0.013-0.099,0.016-0.159,0.025
		c-0.062,0.008-0.131,0.019-0.207,0.021c-0.303,0.015-0.706,0.035-1.109,0.055c-0.402,0.016-0.809,0.012-1.109-0.029
		c-0.152-0.033-0.278,0.019-0.367-0.086C302.917,4.768,302.865,4.541,302.865,4.541z"/>
</g>
<g>
	<path fill="#FFFFFF" d="M306.081,6.083c0,0,0.237-0.14,0.407-0.153c0.16-0.009,0.222,0.139,0.375,0.239
		c0.275,0.229,0.601,0.579,0.912,0.938c0.309,0.363,0.615,0.727,0.848,0.998c0.061,0.064,0.105,0.135,0.148,0.192
		c0.041,0.062,0.06,0.132,0.104,0.157c0.009,0.062-0.081,0.201-0.12,0.275c-0.061,0.094-0.092,0.144-0.092,0.144
		s-0.053,0.026-0.148,0.08c-0.076,0.034-0.225,0.112-0.285,0.101c-0.022-0.051-0.09-0.072-0.146-0.119s-0.121-0.1-0.184-0.162
		c-0.254-0.252-0.592-0.586-0.93-0.922c-0.334-0.338-0.656-0.688-0.865-0.98c-0.088-0.161-0.229-0.232-0.209-0.395
		C305.924,6.311,306.081,6.083,306.081,6.083z"/>
</g>
<g>
	<path fill="#FFFFFF" d="M276.081,6.083c0,0,0.237-0.14,0.407-0.153c0.16-0.009,0.222,0.139,0.375,0.239
		c0.275,0.229,0.601,0.579,0.912,0.938c0.309,0.363,0.615,0.727,0.848,0.998c0.061,0.064,0.105,0.135,0.148,0.192
		c0.041,0.062,0.06,0.132,0.104,0.157c0.009,0.062-0.081,0.201-0.12,0.275c-0.061,0.094-0.092,0.144-0.092,0.144
		s-0.053,0.026-0.148,0.08c-0.076,0.034-0.225,0.112-0.285,0.101c-0.022-0.051-0.09-0.072-0.146-0.119s-0.121-0.1-0.184-0.162
		c-0.254-0.252-0.592-0.586-0.93-0.922c-0.334-0.338-0.656-0.688-0.865-0.98c-0.088-0.161-0.229-0.232-0.209-0.395
		C275.924,6.311,276.081,6.083,276.081,6.083z"/>
</g>
<g>
	<path fill="#FFFFFF" d="M272.865,4.541c0,0,0.049-0.229,0.137-0.341c0.088-0.106,0.214-0.056,0.365-0.09
		c0.303-0.044,0.707-0.053,1.111-0.042c0.401,0.015,0.808,0.03,1.108,0.042c0.076,0.001,0.146,0.011,0.207,0.019
		c0.062,0.008,0.115,0.037,0.159,0.023c0.045,0.03,0.08,0.166,0.104,0.232c0.023,0.09,0.036,0.139,0.036,0.139
		s-0.013,0.048-0.034,0.139c-0.022,0.067-0.059,0.204-0.103,0.234c-0.044-0.013-0.099,0.016-0.159,0.025
		c-0.062,0.008-0.131,0.019-0.206,0.021c-0.304,0.015-0.707,0.035-1.11,0.055c-0.402,0.016-0.809,0.012-1.109-0.028
		c-0.152-0.033-0.278,0.019-0.367-0.086C272.917,4.769,272.865,4.542,272.865,4.541z"/>
</g>
<g>
	<path fill="#FFFFFF" d="M274.451,2.916c0,0,0.229,0.046,0.343,0.132c0.106,0.086,0.06,0.213,0.097,0.364
		c0.047,0.302,0.062,0.706,0.055,1.11c-0.01,0.404-0.02,0.809-0.024,1.112c-0.001,0.076-0.01,0.146-0.019,0.207
		c-0.006,0.062-0.033,0.116-0.021,0.16c-0.028,0.044-0.164,0.082-0.231,0.106c-0.09,0.023-0.137,0.039-0.137,0.039
		s-0.05-0.014-0.141-0.033c-0.066-0.022-0.204-0.055-0.234-0.1c0.014-0.043-0.018-0.099-0.027-0.158
		c-0.008-0.062-0.021-0.131-0.021-0.207c-0.021-0.303-0.045-0.708-0.068-1.109c-0.021-0.404-0.022-0.808,0.015-1.111
		c0.03-0.152-0.022-0.277,0.081-0.368C274.225,2.97,274.451,2.916,274.451,2.916z"/>
</g>
<g>
	<path fill="#FFFFFF" d="M183.363,8.178c-0.246-0.384-0.225-0.498-0.162-0.576c0.045-0.094,0.101-0.176,0.167-0.246
		c0.131-0.146,0.304-0.25,0.452-0.377c0.285-0.268,0.396-0.547,0.675-0.819L186,4.509v0.707c0-0.512-1.014-1.062-1.548-1.646
		c-0.267-0.292-0.45-0.587-0.707-0.89l-0.341-0.458c-0.111-0.167-0.314-0.225-0.104-0.716c0.492-0.212,0.562,0.011,0.729,0.123
		l0.462,0.382c0.303,0.257,0.599,0.521,0.891,0.789c0.586,0.534,1.138,1.104,1.647,1.71l0.322,0.381l-0.32,0.326l-1.647,1.667
		c-0.272,0.28-0.554,0.552-0.819,0.839c-0.129,0.147-0.23,0.32-0.377,0.451c-0.07,0.066-0.152,0.122-0.248,0.167
		C183.861,8.4,183.747,8.424,183.363,8.178z"/>
</g>
<g>
	<path fill="#FFFFFF" d="M158.335,6.479c-0.384,0.246-0.499,0.226-0.576,0.162c-0.093-0.045-0.176-0.101-0.247-0.166
		c-0.146-0.132-0.248-0.305-0.377-0.453c-0.267-0.285-0.547-0.314-0.82-0.596L154.667,4h0.707c-0.513,0-1.062,0.935-1.646,1.469
		c-0.293,0.268-0.588,0.411-0.892,0.667l-0.457,0.322c-0.168,0.11-0.228,0.304-0.717,0.092c-0.212-0.491,0.011-0.563,0.123-0.731
		l0.382-0.463c0.257-0.303,0.521-0.601,0.788-0.893c0.534-0.584,1.104-1.135,1.71-1.647l0.382-0.323l0.325,0.322l1.667,1.647
		c0.278,0.273,0.551,0.554,0.837,0.82c0.146,0.128,0.321,0.23,0.452,0.376c0.065,0.071,0.122,0.153,0.167,0.247
		C158.559,5.979,158.581,6.096,158.335,6.479z"/>
</g>
<g>
	<g>
		<path fill="#FFFFFF" stroke="#051360" stroke-width="0.2" d="M6.893,1.721c0.246,0.385,0.225,0.5,0.162,0.576
			C7.01,2.39,6.954,2.473,6.888,2.545C6.757,2.691,6.584,2.794,6.436,2.922C6.15,3.188,6.04,3.469,5.761,3.742L4.256,5.39
			c0,0,1.014,0.354,1.548,0.939c0.267,0.293,0.45,0.587,0.707,0.89l0.341,0.457c0.111,0.168,0.314,0.227,0.104,0.717
			C6.464,8.605,6.395,8.382,6.227,8.27L5.765,7.888C5.462,7.632,5.166,7.367,4.874,7.1C4.288,6.566,3.736,5.996,3.227,5.39
			L2.904,5.009l0.32-0.326l1.647-1.667c0.272-0.279,0.554-0.551,0.819-0.837c0.129-0.147,0.23-0.321,0.377-0.452
			C6.139,1.66,6.221,1.604,6.316,1.56C6.395,1.498,6.509,1.476,6.893,1.721z"/>
	</g>
	<g>
		<path fill="#FFFFFF" d="M6.893,1.721c0.246,0.385,0.225,0.5,0.162,0.576C7.01,2.39,6.954,2.473,6.888,2.545
			C6.757,2.691,6.584,2.794,6.436,2.922C6.15,3.188,6.04,3.469,5.761,3.742L4.256,5.39c0,0,1.014,0.354,1.548,0.939
			c0.267,0.293,0.45,0.587,0.707,0.89l0.341,0.457c0.111,0.168,0.314,0.227,0.104,0.717C6.464,8.605,6.395,8.382,6.227,8.27
			L5.765,7.888C5.462,7.632,5.166,7.367,4.874,7.1C4.288,6.566,3.736,5.996,3.227,5.39L2.904,5.009l0.32-0.326l1.647-1.667
			c0.272-0.279,0.554-0.551,0.819-0.837c0.129-0.147,0.23-0.321,0.377-0.452C6.139,1.66,6.221,1.604,6.316,1.56
			C6.395,1.498,6.509,1.476,6.893,1.721z"/>
	</g>
	<g enable-background="new    ">
		<path fill="none" stroke="#051360" stroke-width="0.5" d="M6.893,1.721c0.246,0.385,0.225,0.5,0.162,0.576
			C7.01,2.39,6.954,2.473,6.888,2.545C6.757,2.691,6.584,2.794,6.436,2.922C6.15,3.188,6.04,3.469,5.761,3.742L4.256,5.39
			c0,0,1.014,0.354,1.548,0.939c0.267,0.293,0.45,0.587,0.707,0.89l0.341,0.457c0.111,0.168,0.314,0.227,0.104,0.717
			C6.464,8.605,6.395,8.382,6.227,8.27L5.765,7.888C5.462,7.632,5.166,7.367,4.874,7.1C4.288,6.566,3.736,5.996,3.227,5.39
			L2.904,5.009l0.32-0.326l1.647-1.667c0.272-0.279,0.554-0.551,0.819-0.837c0.129-0.147,0.23-0.321,0.377-0.452
			C6.139,1.66,6.221,1.604,6.316,1.56C6.395,1.498,6.509,1.476,6.893,1.721z"/>
	</g>
</g>
</svg>
