<svg height="10" width="10" xmlns="http://www.w3.org/2000/svg"><circle cx="94.277" cy="4.504" fill="none" r="2.875" stroke="#051360" stroke-miterlimit="10"/><path d="m92.865 4.541s.049-.276.137-.413c.087-.126.214-.071.365-.117.303-.048.706-.052 1.109-.04.402.019.81.037 1.109.051.075.001.146.013.207.022.062.01.115.044.159.028.045.036.08.2.104.282.022.109.036.167.036.167s-.011.059-.032.168c-.021.082-.058.246-.102.283-.045-.016-.098.019-.159.03-.062.01-.131.023-.207.025-.303.018-.707.041-1.11.064-.401.018-.808.018-1.108-.026-.149-.044-.274.013-.366-.113-.09-.136-.142-.41-.142-.411zm3.216 1.542s.243-.144.413-.16c.164-.009.224.138.378.238.276.229.601.578.912.938.308.36.616.727.847.998.061.064.105.135.148.192.041.062.059.13.104.157.01.062-.084.203-.125.277-.061.098-.094.146-.094.146s-.055.027-.15.083c-.078.034-.229.116-.289.103-.022-.049-.094-.068-.147-.117-.058-.047-.121-.098-.185-.162-.254-.252-.594-.586-.932-.922-.335-.338-.654-.688-.863-.979-.09-.161-.229-.229-.209-.396.03-.165.192-.396.192-.396z" fill="#051360"/><circle cx="64.289" cy="4.234" fill="none" r="2.875" stroke="#051360" stroke-miterlimit="10"/><path d="m66.081 6.083s.243-.144.413-.16c.164-.009.224.138.378.238.276.229.601.578.912.938.308.36.616.727.847.998.061.064.105.135.148.192.041.062.059.13.104.157.01.062-.084.203-.125.277-.061.098-.094.146-.094.146s-.055.027-.15.083c-.078.034-.229.116-.289.103-.022-.049-.094-.068-.147-.117-.058-.047-.121-.098-.185-.162-.254-.252-.594-.586-.932-.922-.335-.338-.654-.688-.863-.979-.09-.161-.229-.229-.209-.396.03-.165.192-.396.192-.396zm-3.216-1.542s.049-.276.137-.413c.087-.126.214-.071.365-.117.303-.048.706-.052 1.109-.04.402.019.81.037 1.109.051.075.001.146.013.207.022.062.01.115.044.159.028.045.036.08.2.104.282.022.109.036.167.036.167s-.011.059-.032.168c-.021.082-.058.246-.102.283-.045-.016-.098.019-.159.03-.062.01-.131.023-.207.025-.303.018-.707.041-1.11.064-.401.018-.808.018-1.108-.026-.149-.044-.274.013-.366-.113-.09-.136-.142-.41-.142-.411z" fill="#051360"/><path d="m64.451 2.916s.275.045.415.131c.128.086.073.213.12.364.054.302.062.706.056 1.11-.015.404-.026.809-.037 1.112 0 .076-.011.145-.021.207-.007.062-.043.116-.024.16-.036.045-.199.083-.28.107-.109.023-.166.039-.166.039s-.06-.014-.168-.032c-.082-.022-.248-.054-.285-.097.019-.045-.021-.101-.031-.16-.012-.062-.022-.129-.025-.205-.021-.303-.051-.708-.079-1.11-.021-.403-.026-.807.015-1.111.041-.152-.02-.277.105-.368.131-.092.405-.147.405-.147z" fill="#051360"/><circle cx="34.01" cy="4.073" fill="none" r="2.875" stroke="#051360" stroke-miterlimit="10"/><path d="m36.141 5.811s.781.629 1.533 1.297c.379.33.758.658 1.043.906.148.115.236.254.295.354.066.09.049.209.049.209l-.39.448s-.114.037-.214-.019c-.107-.039-.258-.106-.395-.236-.285-.244-.668-.569-1.049-.896-.771-.646-1.512-1.327-1.512-1.326zm-62.778 2.367c-.234-.371-.21-.486-.148-.562.046-.093.102-.175.168-.246.132-.146.304-.25.451-.378.285-.268.389-.549.668-.82l1.498-1.65v.681c0-.514-1.006-1.063-1.539-1.647-.268-.292-.449-.586-.706-.888l-.341-.456c-.113-.167-.312-.227-.113-.706.479-.199.55.021.716.133l.462.383c.302.258.598.523.89.791.584.535 1.136 1.104 1.649 1.708l.312.367-.311.315-1.649 1.667c-.272.278-.554.552-.82.837-.128.146-.232.318-.378.45-.071.067-.153.122-.246.169-.076.063-.191.086-.563-.148zm-25.028-1.699c-.372.234-.486.211-.562.148-.093-.046-.175-.102-.246-.168-.146-.132-.25-.303-.378-.451-.267-.285-.548-.31-.82-.589l-1.649-1.419h.682c-.515 0-1.063.927-1.648 1.461-.292.268-.586.409-.888.666l-.456.321c-.166.112-.227.302-.705.103-.199-.479.021-.555.134-.721l.383-.463c.258-.302.523-.6.79-.892.535-.584 1.104-1.135 1.709-1.649l.366-.312.315.311 1.666 1.647c.279.273.552.554.837.82.147.128.319.233.451.378.066.071.122.153.168.246.061.076.085.189-.149.563zm-36.67-3.273c.372-.234.486-.21.563-.148.092.046.174.102.246.168.145.131.25.303.378.45.267.286.547.468.82.748l1.648 1.576h-.681c.514 0 1.063-1.084 1.647-1.619.292-.267.586-.488.888-.746l.456-.36c.167-.113.227-.321.706-.122.199.479-.021.545-.134.711l-.383.458c-.258.302-.523.597-.791.889-.535.584-1.104 1.135-1.708 1.646l-.367.312-.315-.312-1.666-1.647c-.28-.273-.551-.554-.837-.82-.147-.128-.319-.233-.45-.378-.067-.071-.123-.153-.168-.246-.062-.074-.086-.188.148-.56zm192.002 42.461h237v64h-237z" fill="#051360"/><path d="m121.665 3.206c.384-.246.499-.223.576-.162.093.045.176.101.247.167.146.131.248.304.377.452.267.286.547.475.82.754l1.648 1.583h-.707c.513 0 1.062-1.093 1.646-1.626.293-.267.588-.49.893-.747l.457-.36c.168-.112.229-.324.717-.112.212.492-.011.554-.123.721l-.382.46c-.257.303-.521.598-.788.891-.534.583-1.104 1.134-1.71 1.646l-.382.322-.325-.321-1.667-1.647c-.277-.273-.551-.554-.837-.82-.146-.128-.321-.231-.452-.376-.064-.072-.122-.154-.167-.248-.065-.078-.087-.194.159-.577z" fill="#fff"/><circle cx="244.01" cy="4.073" fill="none" r="2.875" stroke="#fff" stroke-miterlimit="10"/><path d="m246.148 5.799s.783.629 1.535 1.297c.379.329.758.659 1.043.906.146.115.232.255.293.355.063.092.045.213.045.213l-.399.463c.001 0-.116.039-.216-.014-.109-.043-.26-.107-.396-.238-.285-.245-.668-.571-1.05-.898-.771-.645-1.508-1.326-1.508-1.326z" fill="#fff"/><circle cx="274.289" cy="4.234" fill="none" r="2.875" stroke="#fff" stroke-miterlimit="10"/><circle cx="304.277" cy="4.504" fill="none" r="2.875" stroke="#fff" stroke-miterlimit="10"/><g fill="#fff"><path d="m302.865 4.541s.049-.229.137-.341c.088-.106.215-.056.365-.09.303-.044.707-.053 1.111-.042.401.015.808.03 1.108.042.075.001.146.011.206.019.062.008.115.037.16.023.044.03.079.166.104.232.023.09.036.139.036.139s-.013.048-.034.139c-.021.067-.059.204-.103.234-.044-.013-.099.016-.159.025-.062.008-.131.019-.207.021-.303.015-.706.035-1.109.055-.401.016-.809.012-1.108-.029-.152-.033-.278.019-.367-.086-.088-.114-.14-.341-.14-.341z"/><path d="m302.865 4.541s.049-.229.137-.341c.088-.106.215-.056.365-.09.303-.044.707-.053 1.111-.042.401.015.808.03 1.108.042.075.001.146.011.206.019.062.008.115.037.16.023.044.03.079.166.104.232.023.09.036.139.036.139s-.013.048-.034.139c-.021.067-.059.204-.103.234-.044-.013-.099.016-.159.025-.062.008-.131.019-.207.021-.303.015-.706.035-1.109.055-.401.016-.809.012-1.108-.029-.152-.033-.278.019-.367-.086-.088-.114-.14-.341-.14-.341zm3.216 1.542s.237-.14.407-.153c.16-.009.222.139.375.239.275.229.601.579.912.938.309.363.615.727.848.998.061.063.105.135.148.191.041.062.06.133.104.157.009.062-.081.2-.12.274-.062.095-.092.145-.092.145s-.054.025-.147.08c-.076.033-.226.111-.285.102-.022-.052-.09-.072-.146-.119s-.121-.101-.184-.162c-.254-.252-.592-.586-.93-.922-.335-.338-.656-.688-.865-.98-.088-.161-.229-.232-.209-.395.027-.165.184-.393.184-.393zm-30 0s.237-.14.407-.153c.16-.009.222.139.375.239.275.229.601.579.912.938.309.363.615.727.848.998.061.063.105.135.148.191.041.062.06.133.104.157.009.062-.081.2-.12.274-.062.095-.092.145-.092.145s-.054.025-.147.08c-.076.033-.226.111-.285.102-.022-.052-.09-.072-.146-.119s-.121-.101-.184-.162c-.254-.252-.592-.586-.93-.922-.335-.338-.656-.688-.865-.98-.088-.161-.229-.232-.209-.395.027-.165.184-.393.184-.393zm-3.216-1.542s.049-.229.137-.341c.088-.106.214-.056.365-.09.303-.044.707-.053 1.111-.042.4.015.808.03 1.107.042.076.001.146.011.207.019.062.008.115.037.159.023.045.03.079.166.104.232.022.09.035.139.035.139s-.013.048-.033.139c-.022.067-.06.204-.104.234-.044-.013-.1.016-.159.025-.062.008-.131.019-.206.021-.304.015-.707.035-1.109.055-.402.016-.81.012-1.109-.028-.152-.033-.278.019-.367-.086-.086-.114-.138-.341-.138-.342z"/><path d="m274.451 2.916s.229.046.343.132c.106.086.06.213.097.364.047.302.062.706.055 1.11-.01.404-.02.809-.023 1.112-.001.076-.01.146-.02.207-.006.062-.032.116-.021.16-.028.044-.164.082-.231.106-.09.022-.137.039-.137.039s-.05-.015-.141-.033c-.066-.022-.204-.055-.234-.1.014-.043-.018-.1-.027-.158-.008-.062-.021-.131-.021-.207-.021-.303-.045-.708-.067-1.109-.021-.404-.022-.808.015-1.111.03-.152-.022-.277.081-.368.105-.09.331-.144.331-.144zm-91.088 5.262c-.246-.384-.225-.498-.162-.576.045-.094.101-.176.167-.246.131-.146.304-.25.452-.377.285-.268.396-.547.675-.818l1.505-1.652v.707c0-.512-1.014-1.062-1.548-1.646-.267-.292-.45-.587-.707-.89l-.341-.458c-.111-.167-.314-.225-.104-.716.492-.212.562.011.729.123l.462.382c.303.257.599.521.891.789.586.534 1.138 1.104 1.647 1.71l.322.381-.32.326-1.647 1.667c-.272.28-.554.552-.819.839-.129.147-.229.32-.377.451-.069.066-.151.122-.248.167-.079.059-.193.083-.577-.163zm-25.028-1.699c-.384.246-.499.227-.576.162-.093-.045-.176-.101-.247-.166-.146-.132-.248-.305-.377-.453-.267-.285-.547-.313-.82-.596l-1.648-1.426h.707c-.513 0-1.062.935-1.646 1.469-.293.268-.588.411-.893.667l-.457.322c-.168.11-.229.304-.717.092-.212-.491.011-.563.123-.731l.382-.462c.257-.303.521-.601.788-.893.534-.584 1.104-1.135 1.71-1.647l.382-.323.325.322 1.667 1.647c.277.273.551.554.837.82.146.128.321.229.452.376.064.07.122.152.167.246.065.074.087.191-.159.574zm-152.71 1.759c-.109 0-.196-.021-.22-.028-.072-.021-.135-.064-.18-.122-1.439-1.853-2.178-2.953-2.195-3.272-.01-.181-.031-.558 3.161-2.967.037-.027.079-.047.122-.059.018-.005.115-.029.23-.029.305 0 .444.161.501.257.178.303-.027.669-.095.79-.019.037-.047.07-.079.097-.941.793-2.028 1.798-2.141 2.037.05.171.774 1.367 1.424 2.326.024.036.041.076.051.118.061.265.027.479-.099.638-.11.138-.281.214-.48.214z"/></g><path d="m6.544 2.111c.156 0 .354.074.101.526 0 0-2.187 1.843-2.25 2.206-.062.363 1.468 2.622 1.468 2.622.083.363-.103.424-.238.424-.069 0-.124-.016-.124-.016s-2.101-2.705-2.122-3.077c-.02-.371 3.023-2.668 3.023-2.668s.067-.017.142-.017m0-.7c-.15 0-.273.028-.32.041-.088.023-.17.063-.244.118-3.341 2.521-3.32 2.899-3.3 3.265.011.206.032.59 2.268 3.468.092.117.218.203.362.243.044.013.165.043.315.043.308 0 .576-.123.754-.347.135-.169.273-.468.167-.934-.02-.084-.055-.165-.104-.236-.507-.75-1.082-1.681-1.286-2.113.332-.373 1.196-1.16 1.94-1.787.064-.054.118-.12.16-.193.245-.439.276-.822.091-1.138-.16-.273-.453-.43-.803-.43z" fill="#051360"/></svg>