<?xml version="1.0" encoding="utf-8"?>
<!-- Generator: Adobe Illustrator 16.0.4, SVG Export Plug-In . SVG Version: 6.00 Build 0)  -->
<!DOCTYPE svg PUBLIC "-//W3C//DTD SVG 1.1//EN" "http://www.w3.org/Graphics/SVG/1.1/DTD/svg11.dtd">
<svg version="1.1" id="Layer_1" xmlns="http://www.w3.org/2000/svg" xmlns:xlink="http://www.w3.org/1999/xlink" x="0px" y="0px"
	 width="33.625px" height="20.562px" viewBox="-3.625 -9.562 33.625 20.562" enable-background="new -3.625 -9.562 33.625 20.562"
	 xml:space="preserve">
<rect x="-3.625" y="-9.562" fill="#FFFFFF" width="33.625" height="20.562"/>
<path fill="#051360" d="M-1.571,2.397c0,0-2.053,0.052-2.053-1.644c0-1.696,2.127-1.714,2.127-1.714h29.256
	c0,0,2.241-0.032,2.241,1.664c0,1.694-2.22,1.694-2.22,1.694H-1.571z"/>
<path fill="#051360" d="M-1.571-6.205c0,0-2.053,0.051-2.053-1.644c0-1.696,2.127-1.714,2.127-1.714h29.256
	c0,0,2.241-0.032,2.241,1.663c0,1.695-2.22,1.695-2.22,1.695H-1.571z"/>
<path fill="#051360" d="M-1.571,11c0,0-2.053,0.052-2.053-1.645s2.127-1.714,2.127-1.714h29.256c0,0,2.241-0.032,2.241,1.664
	C30,11,27.781,11,27.781,11H-1.571z"/>
</svg>
