<svg xmlns="http://www.w3.org/2000/svg" viewBox="-3.625 -9.562 33.625 20.562"><path fill="#fff" d="M-3.625-9.562H30V11H-3.625z"/><g fill="#051360"><path d="M-1.571 2.397s-2.053.052-2.053-1.644S-1.497-.961-1.497-.961h29.256S30-.993 30 .703c0 1.694-2.22 1.694-2.22 1.694zM-1.571-6.205s-2.053.051-2.053-1.644c0-1.696 2.127-1.714 2.127-1.714h29.256S30-9.595 30-7.9s-2.22 1.695-2.22 1.695zM-1.571 11s-2.053.052-2.053-1.645 2.127-1.714 2.127-1.714h29.256S30 7.609 30 9.305C30 11 27.781 11 27.781 11z"/></g></svg>