<svg enable-background="new -3.625 -9.562 33.625 20.562" height="20.562" viewBox="-3.625 -9.562 33.625 20.562" width="33.625" xmlns="http://www.w3.org/2000/svg"><path d="m-3.625-9.562h33.625v20.562h-33.625z" fill="#051360"/><g fill="#fff"><path d="m-1.571 2.397s-2.053.052-2.053-1.644 2.127-1.714 2.127-1.714h29.256s2.241-.032 2.241 1.664c0 1.694-2.22 1.694-2.22 1.694z"/><path d="m-1.571-6.205s-2.053.051-2.053-1.644c0-1.696 2.127-1.714 2.127-1.714h29.256s2.241-.032 2.241 1.663-2.22 1.695-2.22 1.695z"/><path d="m-1.571 11s-2.053.052-2.053-1.645 2.127-1.714 2.127-1.714h29.256s2.241-.032 2.241 1.664c0 1.695-2.219 1.695-2.219 1.695z"/></g></svg>