<svg xmlns="http://www.w3.org/2000/svg" width="10" height="10"><switch><g><path fill="#fff" d="M-344-30h218v95h-218z"/><path fill="#051360" d="M-134-17h237v64h-237z"/><g fill="none" stroke-miterlimit="10"><g stroke="#051360"><path d="M-328.201 3.207l3.315 3.314 3.356-3.355M-291.664 6.637l-3.315-3.315-3.357 3.356M-266.502 8.178l3.314-3.315-3.355-3.357M-233.363 1.506l-3.315 3.315 3.356 3.357"/><circle cx="-206" cy="4.073" r="2.875"/><path d="M-204.188 6.178l3.042 2.625"/><circle cx="-175.711" cy="4.234" r="2.875"/><path d="M-175.5 6V3M-177 4.5h3"/><path stroke-width=".8442" d="M-173.836 6.328l2.422 2.313"/><circle cx="-145.723" cy="4.504" r="2.875"/><path d="M-147.223 4.512l3-.016"/><path stroke-width=".8442" d="M-143.837 6.588l2.435 2.299"/></g><path stroke="#fff" d="M-118.336 3.207l3.315 3.314 3.357-3.355M-81.664 6.637l-3.315-3.315-3.357 3.356M-56.637 8.178l3.315-3.315-3.356-3.357M-23.363 1.506l-3.315 3.315 3.356 3.357"/><circle cx="4.01" cy="4.073" r="2.875" stroke="#fff"/><path stroke="#fff" d="M5.822 6.178l3.043 2.625"/><circle cx="34.289" cy="4.234" r="2.875" stroke="#fff"/><path stroke="#fff" d="M34.5 6V3M33 4.5h3"/><path stroke="#fff" stroke-width=".8442" d="M36.164 6.328l2.422 2.313"/><circle cx="64.277" cy="4.504" r="2.875" stroke="#fff"/><path stroke="#fff" d="M62.777 4.512l3-.016"/><path stroke="#fff" stroke-width=".8442" d="M66.163 6.588l2.435 2.299"/></g></g></switch></svg>