<svg height="10" width="10" xmlns="http://www.w3.org/2000/svg"><switch><g><path d="m-344-30h218v95h-218z" fill="#fff"/><path d="m-134-17h237v64h-237z" fill="#051360"/><g fill="none" stroke-miterlimit="10"><g stroke="#051360"><path d="m-328.201 3.207 3.315 3.314 3.356-3.355m29.866 3.471-3.315-3.315-3.357 3.356m31.834 1.5 3.314-3.315-3.355-3.357m33.18 0-3.315 3.315 3.356 3.357"/><circle cx="-206" cy="4.073" r="2.875"/><path d="m-204.188 6.178 3.042 2.625"/><circle cx="-175.711" cy="4.234" r="2.875"/><path d="m-175.5 6v-3m-1.5 1.5h3"/><path d="m-173.836 6.328 2.422 2.313" stroke-width=".8442"/><circle cx="-145.723" cy="4.504" r="2.875"/><path d="m-147.223 4.512 3-.016"/><path d="m-143.837 6.588 2.435 2.299" stroke-width=".8442"/></g><g stroke="#fff"><path d="m-118.336 3.207 3.315 3.314 3.357-3.355m30 3.471-3.315-3.315-3.357 3.356m31.699 1.5 3.315-3.315-3.356-3.357m33.315 0-3.315 3.315 3.356 3.357"/><circle cx="4.01" cy="4.073" r="2.875"/><path d="m5.822 6.178 3.043 2.625"/><circle cx="34.289" cy="4.234" r="2.875"/><path d="m34.5 6v-3m-1.5 1.5h3"/><path d="m36.164 6.328 2.422 2.313" stroke-width=".8442"/><circle cx="64.277" cy="4.504" r="2.875"/><path d="m62.777 4.512 3-.016"/><path d="m66.163 6.588 2.435 2.299" stroke-width=".8442"/></g></g></g></switch></svg>