<svg enable-background="new 0 0 10 10" height="10" viewBox="0 0 10 10" width="10" xmlns="http://www.w3.org/2000/svg"><path d="m-344-30h218v95h-218z" fill="#fff"/><circle cx="-145.723" cy="4.504" fill="none" r="2.875" stroke="#051360" stroke-miterlimit="10"/><path d="m-147.135 4.541s.049-.276.137-.413c.087-.126.214-.071.365-.117.303-.048.706-.052 1.11-.04.404.019.809.037 1.111.051.075.001.146.013.207.022.062.01.115.044.159.028.045.036.08.2.104.282.024.109.037.167.037.167s-.013.059-.035.168c-.023.082-.057.246-.101.283-.045-.016-.098.019-.159.03-.062.01-.131.023-.207.025-.303.018-.707.041-1.11.064-.404.018-.808.018-1.111-.026-.151-.044-.277.013-.366-.113-.089-.136-.141-.41-.141-.411z" fill="#051360"/><path d="m-143.919 6.083s.243-.144.413-.16c.164-.009.224.138.378.238.276.23.601.578.912.938.308.363.616.727.847.999.06.066.105.135.148.194.041.061.059.13.105.157.009.063-.084.205-.125.28-.061.095-.094.146-.094.146s-.053.028-.152.083c-.078.034-.227.116-.289.103-.023-.049-.092-.071-.148-.118s-.121-.098-.183-.162c-.254-.251-.593-.586-.931-.921-.335-.339-.656-.688-.864-.982-.089-.161-.23-.232-.209-.394.03-.17.192-.401.192-.401z" fill="#051360"/><circle cx="-175.711" cy="4.234" fill="none" r="2.875" stroke="#051360" stroke-miterlimit="10"/><path d="m-173.919 6.083s.243-.144.413-.16c.164-.009.224.138.378.238.276.23.601.578.912.938.308.363.616.727.847.999.06.066.105.135.148.194.041.061.059.13.105.157.009.063-.084.205-.125.28-.061.095-.094.146-.094.146s-.053.028-.152.083c-.078.034-.227.116-.289.103-.023-.049-.092-.071-.148-.118s-.121-.098-.183-.162c-.254-.251-.593-.586-.931-.921-.335-.339-.656-.688-.864-.982-.089-.161-.23-.232-.209-.394.03-.17.192-.401.192-.401z" fill="#051360"/><path d="m-177.135 4.541s.049-.276.137-.413c.087-.126.214-.071.365-.117.303-.048.706-.052 1.11-.04.404.019.809.037 1.111.051.075.001.146.013.207.022.062.01.115.044.159.028.045.036.08.2.104.282.024.109.037.167.037.167s-.013.059-.035.168c-.023.082-.057.246-.101.283-.045-.016-.098.019-.159.03-.062.01-.131.023-.207.025-.303.018-.707.041-1.11.064-.404.018-.808.018-1.111-.026-.151-.044-.277.013-.366-.113-.089-.136-.141-.41-.141-.411z" fill="#051360"/><path d="m-175.549 2.916s.276.045.415.131c.128.086.073.213.121.364.053.302.062.706.055 1.11-.014.404-.026.809-.037 1.112 0 .076-.011.145-.02.207s-.043.116-.025.16c-.036.045-.199.083-.28.108-.109.025-.167.039-.167.039s-.059-.012-.168-.033c-.082-.022-.247-.054-.284-.097.016-.045-.021-.098-.032-.159-.011-.062-.024-.13-.027-.206-.021-.303-.051-.706-.079-1.11-.022-.403-.028-.807.012-1.111.042-.152-.017-.277.108-.368.134-.092.408-.147.408-.147z" fill="#051360"/><circle cx="-205.99" cy="4.073" fill="none" r="2.875" stroke="#051360" stroke-miterlimit="10"/><path d="m-203.86 5.81s.782.63 1.534 1.298c.379.329.758.658 1.043.905.148.116.236.254.295.355.066.09.048.209.048.209l-.389.449s-.114.037-.214-.017c-.107-.042-.258-.109-.394-.239-.286-.245-.668-.572-1.05-.899-.77-.645-1.509-1.327-1.509-1.326z" fill="#051360"/><path d="m-233.363 1.506c.234.372.21.486.148.563-.046.092-.102.174-.168.246-.132.145-.304.25-.451.378-.285.267-.389.547-.668.82l-1.498 1.649v-.681c0 .514 1.006 1.063 1.539 1.647.268.292.449.587.706.889l.341.456c.113.166.312.227.113.705-.479.199-.55-.021-.716-.134l-.462-.383c-.302-.258-.598-.523-.89-.79-.584-.535-1.136-1.104-1.649-1.709l-.312-.367.311-.315 1.648-1.667c.272-.279.554-.551.82-.837.128-.148.232-.319.378-.451.071-.067.153-.123.246-.168.077-.061.192-.085.564.149z" fill="#051360"/><path d="m-266.637 8.178c-.234-.372-.21-.486-.148-.562.046-.093.102-.175.168-.246.132-.146.304-.25.451-.378.285-.267.389-.548.668-.82l1.498-1.65v.681c0-.514-1.006-1.063-1.539-1.647-.268-.292-.449-.586-.706-.888l-.341-.456c-.113-.167-.312-.227-.113-.706.479-.199.55.021.716.133l.462.383c.302.258.598.523.89.791.584.535 1.136 1.104 1.649 1.708l.312.367-.311.315-1.648 1.667c-.272.279-.554.552-.82.837-.128.147-.232.319-.378.45-.071.067-.153.123-.246.169-.077.062-.192.086-.564-.148z" fill="#051360"/><path d="m-291.665 6.479c-.372.234-.486.21-.562.148-.093-.046-.175-.102-.246-.168-.146-.132-.25-.303-.378-.451-.267-.285-.548-.31-.82-.589l-1.649-1.419h.682c-.515 0-1.063.927-1.648 1.461-.292.267-.586.409-.888.666l-.456.321c-.166.112-.227.302-.705.103-.199-.479.021-.555.134-.721l.383-.463c.258-.302.523-.6.79-.892.535-.584 1.104-1.135 1.709-1.649l.366-.312.315.311 1.666 1.647c.279.273.552.554.837.82.147.128.319.233.451.378.066.071.122.153.168.246.061.076.085.19-.149.563z" fill="#051360"/><path d="m-328.335 3.206c.372-.234.486-.21.563-.148.092.046.174.102.246.168.145.131.25.303.378.45.267.286.547.468.82.748l1.648 1.576h-.681c.514 0 1.063-1.084 1.647-1.619.292-.267.586-.488.888-.746l.456-.36c.167-.113.227-.321.706-.122.199.479-.021.545-.134.711l-.383.458c-.258.302-.523.597-.791.889-.535.584-1.104 1.134-1.708 1.647l-.367.312-.315-.312-1.666-1.648c-.28-.273-.551-.554-.837-.82-.147-.128-.319-.233-.45-.378-.067-.071-.123-.153-.168-.246-.062-.074-.086-.188.148-.56z" fill="#051360"/><path d="m-134-17h237v64h-237z" fill="#051360"/><path d="m-118.335 3.206c.384-.246.499-.223.576-.162.093.045.176.101.247.167.146.131.249.304.377.452.267.286.547.475.82.754l1.648 1.583h-.707c.513 0 1.062-1.093 1.646-1.626.293-.267.587-.49.89-.747l.457-.36c.168-.112.226-.324.717-.112.212.492-.011.554-.123.721l-.382.46c-.257.303-.521.598-.788.891-.534.584-1.104 1.134-1.71 1.646l-.382.323-.325-.322-1.667-1.647c-.279-.273-.551-.554-.837-.82-.148-.128-.321-.231-.452-.376-.066-.072-.122-.154-.167-.248-.062-.078-.084-.194.162-.577z" fill="#fff"/><path d="m-23.363 1.506c.246.384.224.5.162.576-.045.093-.101.176-.167.248-.131.146-.304.249-.452.377-.286.266-.396.547-.675.82l-1.505 1.648v-.707c0 .512 1.014 1.062 1.548 1.646.267.293.45.587.707.89l.341.457c.111.168.314.226.103.717-.492.212-.56-.011-.728-.123l-.462-.382c-.303-.256-.599-.521-.891-.788-.586-.533-1.137-1.104-1.648-1.71l-.322-.381.321-.326 1.647-1.667c.273-.279.554-.551.82-.837.128-.148.231-.321.377-.452.071-.067.153-.123.247-.167.078-.062.193-.084.577.161z" fill="#fff"/><circle cx="4.01" cy="4.073" fill="none" r="2.875" stroke="#fff" stroke-miterlimit="10"/><path d="m6.148 5.799s.784.629 1.535 1.297c.379.329.758.659 1.043.906.149.116.236.256.294.357.066.091.044.212.045.212l-.4.463c.001 0-.116.039-.216-.014-.109-.041-.26-.107-.395-.238-.286-.245-.668-.571-1.05-.898-.771-.645-1.508-1.327-1.508-1.327z" fill="#fff"/><circle cx="34.289" cy="4.234" fill="none" r="2.875" stroke="#fff" stroke-miterlimit="10"/><circle cx="64.277" cy="4.504" fill="none" r="2.875" stroke="#fff" stroke-miterlimit="10"/><g fill="#fff"><path d="m62.865 4.541s.049-.229.137-.341c.088-.106.215-.056.365-.09.303-.044.707-.053 1.111-.042.404.015.808.03 1.111.042.075.001.145.011.206.019.062.008.115.037.16.023.045.029.08.164.105.231.024.09.037.139.037.139s-.013.048-.035.139c-.023.067-.058.204-.102.234-.044-.013-.098.016-.159.025-.062.008-.131.019-.207.021-.303.015-.706.035-1.11.055-.403.016-.808.012-1.11-.029-.152-.033-.278.019-.367-.086-.09-.113-.142-.34-.142-.34z"/><path d="m62.865 4.541s.049-.229.137-.341c.088-.106.215-.056.365-.09.303-.044.707-.053 1.111-.042.404.015.808.03 1.111.042.075.001.145.011.206.019.062.008.115.037.16.023.045.029.08.164.105.231.024.09.037.139.037.139s-.013.048-.035.139c-.023.067-.058.204-.102.234-.044-.013-.098.016-.159.025-.062.008-.131.019-.207.021-.303.015-.706.035-1.11.055-.403.016-.808.012-1.11-.029-.152-.033-.278.019-.367-.086-.09-.113-.142-.34-.142-.34z"/><path d="m66.081 6.083s.238-.14.407-.154c.161-.008.222.139.375.24.275.23.601.579.912.938.309.363.616.727.848.998.06.066.105.135.148.194.042.061.06.13.106.157.009.062-.081.201-.12.276-.06.093-.092.143-.092.143s-.052.028-.149.08c-.077.034-.224.113-.285.099-.023-.049-.091-.071-.147-.118s-.121-.099-.183-.163c-.254-.251-.592-.586-.93-.921-.334-.339-.656-.689-.865-.981-.089-.161-.23-.233-.21-.394.028-.167.185-.394.185-.394z"/><path d="m36.081 6.083s.238-.14.407-.154c.161-.008.222.139.375.24.275.23.601.579.912.938.309.363.616.727.848.998.06.066.105.135.148.194.042.061.06.13.106.157.009.062-.081.201-.12.276-.06.093-.092.143-.092.143s-.052.028-.149.08c-.077.034-.224.113-.285.099-.023-.049-.091-.071-.147-.118s-.121-.099-.183-.163c-.254-.251-.592-.586-.93-.921-.334-.339-.656-.689-.865-.981-.089-.161-.23-.233-.21-.394.028-.167.185-.394.185-.394z"/><path d="m32.865 4.541s.049-.229.137-.341c.088-.106.214-.056.365-.09.303-.044.707-.053 1.111-.042.403.015.808.03 1.11.042.076.001.146.011.207.019.062.008.115.037.159.023.046.028.081.164.106.231.024.09.037.139.037.139s-.013.048-.035.138c-.023.067-.058.204-.102.234-.044-.013-.098.016-.159.025-.062.008-.131.019-.206.021-.304.015-.707.035-1.111.055-.403.016-.808.012-1.11-.028-.152-.033-.278.019-.367-.086-.09-.112-.142-.339-.142-.34z"/><path d="m34.451 2.916s.229.046.343.132c.107.086.059.213.096.364.048.302.062.706.056 1.11-.01.404-.02.809-.026 1.112-.001.076-.01.146-.017.207s-.035.116-.021.16c-.029.044-.164.082-.231.106-.09.025-.138.039-.138.039s-.049-.012-.14-.033c-.067-.022-.204-.055-.234-.099.013-.044-.018-.098-.027-.159-.009-.062-.021-.131-.023-.207-.02-.303-.045-.706-.069-1.109-.021-.404-.023-.808.014-1.111.031-.152-.022-.277.081-.368.11-.09.336-.144.336-.144z"/><path d="m-56.637 8.178c-.246-.384-.224-.499-.162-.576.045-.094.101-.176.167-.247.131-.146.304-.249.452-.377.286-.267.396-.547.675-.82l1.505-1.649v.707c0-.512-1.014-1.062-1.548-1.646-.267-.292-.45-.587-.707-.89l-.341-.458c-.111-.167-.314-.225-.103-.716.492-.212.56.011.728.123l.462.382c.303.257.599.521.891.789.586.534 1.137 1.104 1.648 1.71l.322.381-.321.326-1.647 1.667c-.273.28-.554.552-.82.838-.128.148-.231.321-.377.452-.071.066-.153.122-.247.167-.078.06-.193.083-.577-.163z"/><path d="m-81.665 6.479c-.384.246-.499.224-.576.162-.093-.045-.176-.101-.247-.167-.146-.131-.249-.304-.377-.452-.267-.286-.547-.316-.82-.596l-1.648-1.426h.707c-.513 0-1.062.935-1.646 1.469-.293.267-.587.411-.89.667l-.457.322c-.168.111-.226.304-.717.092-.212-.491.011-.564.123-.731l.382-.465c.257-.303.521-.601.788-.893.534-.584 1.104-1.135 1.71-1.647l.382-.323.325.322 1.667 1.647c.279.273.551.554.837.82.148.128.321.231.452.376.066.072.122.154.167.248.062.075.084.191-.162.575z"/></g></svg>