<?xml version="1.0" encoding="utf-8"?>
<!-- Generator: Adobe Illustrator 16.0.4, SVG Export Plug-In . SVG Version: 6.00 Build 0)  -->
<!DOCTYPE svg PUBLIC "-//W3C//DTD SVG 1.1//EN" "http://www.w3.org/Graphics/SVG/1.1/DTD/svg11.dtd">
<svg version="1.1" id="Layer_1" xmlns="http://www.w3.org/2000/svg" xmlns:xlink="http://www.w3.org/1999/xlink" x="0px" y="0px"
	 width="10px" height="10px" viewBox="0 0 10 10" enable-background="new 0 0 10 10" xml:space="preserve">
<rect x="-194" y="-30" fill="#FFFFFF" width="218" height="95"/>
<g>
	<circle fill="none" stroke="#051360" stroke-miterlimit="10" cx="4.277" cy="4.504" r="2.875"/>
	<path fill="none" stroke="#FFFFFF" stroke-miterlimit="10" d="M5.777,4.496"/>
	<path fill="none" stroke="#FFFFFF" stroke-miterlimit="10" d="M2.777,4.512"/>
</g>
<g>
	<path fill="#051360" d="M2.865,4.541c0,0,0.049-0.276,0.137-0.413c0.087-0.126,0.214-0.071,0.365-0.117
		c0.303-0.048,0.706-0.052,1.11-0.04C4.882,3.99,5.286,4.008,5.589,4.022c0.075,0.001,0.146,0.013,0.207,0.022
		c0.062,0.01,0.115,0.044,0.159,0.028C6,4.108,6.035,4.272,6.06,4.354c0.024,0.109,0.037,0.167,0.037,0.167S6.084,4.58,6.062,4.689
		C6.038,4.771,6.005,4.936,5.961,4.972c-0.045-0.016-0.098,0.019-0.159,0.03C5.74,5.012,5.671,5.025,5.595,5.027
		c-0.303,0.018-0.707,0.041-1.11,0.064C4.08,5.109,3.677,5.109,3.373,5.065C3.222,5.021,3.096,5.078,3.007,4.952
		C2.917,4.816,2.865,4.542,2.865,4.541z"/>
</g>
<g>
	<path fill="#051360" d="M6.081,6.083c0,0,0.243-0.144,0.413-0.16c0.164-0.009,0.224,0.138,0.378,0.238
		c0.276,0.23,0.601,0.578,0.912,0.938C8.092,7.462,8.4,7.825,8.631,8.098c0.06,0.066,0.105,0.135,0.148,0.194
		c0.041,0.061,0.059,0.13,0.105,0.157c0.009,0.063-0.084,0.205-0.125,0.28C8.699,8.824,8.666,8.875,8.666,8.875
		S8.613,8.903,8.514,8.958C8.436,8.992,8.287,9.074,8.225,9.061C8.201,9.012,8.133,8.989,8.076,8.942S7.955,8.845,7.894,8.78
		C7.64,8.529,7.301,8.194,6.963,7.859C6.628,7.521,6.307,7.171,6.099,6.877C6.01,6.716,5.868,6.645,5.89,6.483
		C5.919,6.314,6.081,6.083,6.081,6.083z"/>
</g>
<circle fill="none" stroke="#051360" stroke-miterlimit="10" cx="-25.711" cy="4.234" r="2.875"/>
<g>
	<path fill="#051360" d="M-23.919,6.083c0,0,0.243-0.144,0.413-0.16c0.164-0.009,0.224,0.138,0.378,0.238
		c0.276,0.23,0.601,0.578,0.912,0.938c0.308,0.363,0.616,0.727,0.847,0.999c0.06,0.066,0.105,0.135,0.148,0.194
		c0.041,0.061,0.059,0.13,0.105,0.157c0.009,0.063-0.084,0.205-0.125,0.28c-0.061,0.095-0.094,0.146-0.094,0.146
		s-0.053,0.028-0.152,0.083c-0.078,0.034-0.227,0.116-0.289,0.103c-0.023-0.049-0.092-0.071-0.148-0.118s-0.121-0.098-0.183-0.162
		c-0.254-0.251-0.593-0.586-0.931-0.921c-0.335-0.339-0.656-0.688-0.864-0.982c-0.089-0.161-0.23-0.232-0.209-0.394
		C-24.081,6.314-23.919,6.083-23.919,6.083z"/>
</g>
<g>
	<path fill="#051360" d="M-27.135,4.541c0,0,0.049-0.276,0.137-0.413c0.087-0.126,0.214-0.071,0.365-0.117
		c0.303-0.048,0.706-0.052,1.11-0.04c0.404,0.019,0.809,0.037,1.111,0.051c0.075,0.001,0.146,0.013,0.207,0.022
		c0.062,0.01,0.115,0.044,0.159,0.028c0.045,0.036,0.08,0.2,0.104,0.282c0.024,0.109,0.037,0.167,0.037,0.167
		s-0.013,0.059-0.035,0.168c-0.023,0.082-0.057,0.246-0.101,0.283c-0.045-0.016-0.098,0.019-0.159,0.03
		c-0.062,0.01-0.131,0.023-0.207,0.025c-0.303,0.018-0.707,0.041-1.11,0.064c-0.404,0.018-0.808,0.018-1.111-0.026
		c-0.151-0.044-0.277,0.013-0.366-0.113C-27.083,4.816-27.135,4.542-27.135,4.541z"/>
</g>
<g>
	<path fill="#051360" d="M-25.549,2.916c0,0,0.276,0.045,0.415,0.131c0.128,0.086,0.073,0.213,0.121,0.364
		c0.053,0.302,0.062,0.706,0.055,1.11c-0.014,0.404-0.026,0.809-0.037,1.112c0,0.076-0.011,0.145-0.02,0.207
		c-0.009,0.062-0.043,0.116-0.025,0.16c-0.036,0.045-0.199,0.083-0.28,0.108c-0.109,0.025-0.167,0.039-0.167,0.039
		s-0.059-0.012-0.168-0.033c-0.082-0.022-0.247-0.054-0.284-0.097c0.016-0.045-0.021-0.098-0.032-0.159
		c-0.011-0.062-0.024-0.13-0.027-0.206c-0.021-0.303-0.051-0.706-0.079-1.11c-0.022-0.403-0.028-0.807,0.012-1.111
		c0.042-0.152-0.017-0.277,0.108-0.368C-25.823,2.971-25.549,2.916-25.549,2.916z"/>
</g>
<g>
	<circle fill="none" stroke="#051360" stroke-miterlimit="10" cx="-55.99" cy="4.073" r="2.875"/>
	<g>
		<path fill="#051360" d="M-53.86,5.81c0,0,0.782,0.63,1.534,1.298c0.379,0.329,0.758,0.658,1.043,0.905
			c0.148,0.116,0.236,0.254,0.295,0.355c0.066,0.09,0.048,0.209,0.048,0.209l-0.389,0.449c0,0-0.114,0.037-0.214-0.017
			c-0.107-0.042-0.258-0.109-0.394-0.239c-0.286-0.245-0.668-0.572-1.05-0.899c-0.77-0.645-1.509-1.327-1.509-1.326L-53.86,5.81z"/>
	</g>
</g>
<g>
	<path fill="#051360" d="M-83.363,1.506c0.234,0.372,0.21,0.486,0.148,0.563c-0.046,0.092-0.102,0.174-0.168,0.246
		c-0.132,0.145-0.304,0.25-0.451,0.378c-0.285,0.267-0.389,0.547-0.668,0.82L-86,5.162V4.481c0,0.514,1.006,1.063,1.539,1.647
		c0.268,0.292,0.449,0.587,0.706,0.889l0.341,0.456c0.113,0.166,0.312,0.227,0.113,0.705c-0.479,0.199-0.55-0.021-0.716-0.134
		l-0.462-0.383c-0.302-0.258-0.598-0.523-0.89-0.79c-0.584-0.535-1.136-1.104-1.649-1.709l-0.312-0.367l0.311-0.315l1.648-1.667
		c0.272-0.279,0.554-0.551,0.82-0.837c0.128-0.148,0.232-0.319,0.378-0.451c0.071-0.067,0.153-0.123,0.246-0.168
		C-83.85,1.296-83.735,1.272-83.363,1.506z"/>
</g>
<g>
	<path fill="#051360" d="M-116.637,8.178c-0.234-0.372-0.21-0.486-0.148-0.562c0.046-0.093,0.102-0.175,0.168-0.246
		c0.132-0.146,0.304-0.25,0.451-0.378c0.285-0.267,0.389-0.548,0.668-0.82L-114,4.522v0.681c0-0.514-1.006-1.063-1.539-1.647
		c-0.268-0.292-0.449-0.586-0.706-0.888l-0.341-0.456c-0.113-0.167-0.312-0.227-0.113-0.706c0.479-0.199,0.55,0.021,0.716,0.133
		l0.462,0.383c0.302,0.258,0.598,0.523,0.89,0.791c0.584,0.535,1.136,1.104,1.649,1.708l0.312,0.367l-0.311,0.315l-1.648,1.667
		c-0.272,0.279-0.554,0.552-0.82,0.837c-0.128,0.147-0.232,0.319-0.378,0.45c-0.071,0.067-0.153,0.123-0.246,0.169
		C-116.15,8.388-116.265,8.412-116.637,8.178z"/>
</g>
<g>
	<path fill="#051360" d="M-141.665,6.479c-0.372,0.234-0.486,0.21-0.562,0.148c-0.093-0.046-0.175-0.102-0.246-0.168
		c-0.146-0.132-0.25-0.303-0.378-0.451c-0.267-0.285-0.548-0.31-0.82-0.589L-145.32,4h0.682c-0.515,0-1.063,0.927-1.648,1.461
		c-0.292,0.267-0.586,0.409-0.888,0.666l-0.456,0.321c-0.166,0.112-0.227,0.302-0.705,0.103c-0.199-0.479,0.021-0.555,0.134-0.721
		l0.383-0.463c0.258-0.302,0.523-0.6,0.79-0.892c0.535-0.584,1.104-1.135,1.709-1.649l0.366-0.312l0.315,0.311l1.666,1.647
		c0.279,0.273,0.552,0.554,0.837,0.82c0.147,0.128,0.319,0.233,0.451,0.378c0.066,0.071,0.122,0.153,0.168,0.246
		C-141.455,5.992-141.431,6.106-141.665,6.479z"/>
</g>
<g>
	<path fill="#051360" d="M-178.335,3.206c0.372-0.234,0.486-0.21,0.563-0.148c0.092,0.046,0.174,0.102,0.246,0.168
		c0.145,0.131,0.25,0.303,0.378,0.45c0.267,0.286,0.547,0.468,0.82,0.748L-174.68,6h-0.681c0.514,0,1.063-1.084,1.647-1.619
		c0.292-0.267,0.586-0.488,0.888-0.746l0.456-0.36c0.167-0.113,0.227-0.321,0.706-0.122c0.199,0.479-0.021,0.545-0.134,0.711
		l-0.383,0.458c-0.258,0.302-0.523,0.597-0.791,0.889c-0.535,0.584-1.104,1.134-1.708,1.647l-0.367,0.312l-0.315-0.312l-1.666-1.648
		c-0.28-0.273-0.551-0.554-0.837-0.82c-0.147-0.128-0.319-0.233-0.45-0.378c-0.067-0.071-0.123-0.153-0.168-0.246
		C-178.545,3.692-178.569,3.578-178.335,3.206z"/>
</g>
<rect x="16" y="-17" fill="#051360" width="237" height="64"/>
<g>
	<path fill="#FFFFFF" d="M31.665,3.206c0.384-0.246,0.499-0.223,0.576-0.162c0.093,0.045,0.176,0.101,0.247,0.167
		c0.146,0.131,0.249,0.304,0.377,0.452c0.267,0.286,0.547,0.475,0.82,0.754L35.333,6h-0.707c0.513,0,1.062-1.093,1.646-1.626
		c0.293-0.267,0.587-0.49,0.89-0.747l0.457-0.36c0.168-0.112,0.226-0.324,0.717-0.112c0.212,0.492-0.011,0.554-0.123,0.721
		l-0.382,0.46c-0.257,0.303-0.521,0.598-0.788,0.891c-0.534,0.584-1.104,1.134-1.71,1.646l-0.382,0.323l-0.325-0.322l-1.667-1.647
		c-0.279-0.273-0.551-0.554-0.837-0.82c-0.148-0.128-0.321-0.231-0.452-0.376c-0.066-0.072-0.122-0.154-0.167-0.248
		C31.441,3.705,31.419,3.589,31.665,3.206z"/>
</g>
<g>
	<path fill="#FFFFFF" d="M126.637,1.506c0.246,0.384,0.224,0.5,0.162,0.576c-0.045,0.093-0.101,0.176-0.167,0.248
		c-0.131,0.146-0.304,0.249-0.452,0.377c-0.286,0.266-0.396,0.547-0.675,0.82L124,5.175V4.468c0,0.512,1.014,1.062,1.548,1.646
		c0.267,0.293,0.45,0.587,0.707,0.89l0.341,0.457c0.111,0.168,0.314,0.226,0.103,0.717c-0.492,0.212-0.56-0.011-0.728-0.123
		l-0.462-0.382c-0.303-0.256-0.599-0.521-0.891-0.788c-0.586-0.533-1.137-1.104-1.648-1.71l-0.322-0.381l0.321-0.326l1.647-1.667
		c0.273-0.279,0.554-0.551,0.82-0.837c0.128-0.148,0.231-0.321,0.377-0.452c0.071-0.067,0.153-0.123,0.247-0.167
		C126.138,1.283,126.253,1.261,126.637,1.506z"/>
</g>
<g>
	<circle fill="none" stroke="#FFFFFF" stroke-miterlimit="10" cx="154.01" cy="4.073" r="2.875"/>
	<g>
		<path fill="#FFFFFF" d="M156.148,5.799c0,0,0.784,0.629,1.535,1.297c0.379,0.329,0.758,0.659,1.043,0.906
			c0.148,0.115,0.235,0.255,0.293,0.356c0.066,0.091,0.045,0.212,0.046,0.212l-0.4,0.463c0.001,0-0.116,0.039-0.216-0.014
			c-0.109-0.042-0.26-0.107-0.396-0.238c-0.286-0.245-0.668-0.571-1.05-0.898c-0.771-0.645-1.508-1.327-1.508-1.327L156.148,5.799z"
			/>
	</g>
</g>
<circle fill="none" stroke="#FFFFFF" stroke-miterlimit="10" cx="184.289" cy="4.234" r="2.875"/>
<path fill="none" stroke="#FFFFFF" stroke-miterlimit="10" d="M184.5,3"/>
<path fill="none" stroke="#FFFFFF" stroke-miterlimit="10" d="M184.5,6"/>
<path fill="none" stroke="#FFFFFF" stroke-miterlimit="10" d="M186,4.5"/>
<path fill="none" stroke="#FFFFFF" stroke-miterlimit="10" d="M183,4.5"/>
<path fill="none" stroke="#FFFFFF" stroke-width="0.8442" stroke-miterlimit="10" d="M186.164,6.328"/>
<g>
	<circle fill="none" stroke="#FFFFFF" stroke-miterlimit="10" cx="214.277" cy="4.504" r="2.875"/>
	<path fill="none" stroke="#FFFFFF" stroke-miterlimit="10" d="M215.777,4.496"/>
	<path fill="none" stroke="#FFFFFF" stroke-miterlimit="10" d="M212.777,4.512"/>
</g>
<g>
	<path fill="#FFFFFF" d="M212.865,4.541c0,0,0.049-0.229,0.137-0.341c0.088-0.106,0.215-0.056,0.365-0.09
		c0.303-0.044,0.707-0.053,1.111-0.042c0.404,0.015,0.808,0.03,1.111,0.042c0.075,0.001,0.145,0.011,0.206,0.019
		c0.062,0.008,0.115,0.037,0.16,0.023c0.044,0.03,0.079,0.166,0.104,0.232c0.024,0.09,0.037,0.139,0.037,0.139
		s-0.013,0.048-0.035,0.139c-0.023,0.067-0.058,0.204-0.102,0.234c-0.044-0.013-0.098,0.016-0.159,0.025
		c-0.062,0.008-0.131,0.019-0.207,0.021c-0.303,0.015-0.706,0.035-1.11,0.055c-0.403,0.016-0.808,0.012-1.11-0.029
		c-0.152-0.033-0.278,0.019-0.367-0.086C212.917,4.768,212.865,4.541,212.865,4.541z"/>
</g>
<g>
	<path fill="#FFFFFF" d="M212.865,4.541c0,0,0.049-0.229,0.137-0.341c0.088-0.106,0.215-0.056,0.365-0.09
		c0.303-0.044,0.707-0.053,1.111-0.042c0.404,0.015,0.808,0.03,1.111,0.042c0.075,0.001,0.145,0.011,0.206,0.019
		c0.062,0.008,0.115,0.037,0.16,0.023c0.044,0.03,0.079,0.166,0.104,0.232c0.024,0.09,0.037,0.139,0.037,0.139
		s-0.013,0.048-0.035,0.139c-0.023,0.067-0.058,0.204-0.102,0.234c-0.044-0.013-0.098,0.016-0.159,0.025
		c-0.062,0.008-0.131,0.019-0.207,0.021c-0.303,0.015-0.706,0.035-1.11,0.055c-0.403,0.016-0.808,0.012-1.11-0.029
		c-0.152-0.033-0.278,0.019-0.367-0.086C212.917,4.768,212.865,4.541,212.865,4.541z"/>
</g>
<g>
	<path fill="#FFFFFF" d="M216.081,6.083c0,0,0.238-0.14,0.407-0.154c0.161-0.008,0.222,0.139,0.375,0.24
		c0.275,0.23,0.601,0.579,0.912,0.938c0.309,0.363,0.616,0.727,0.848,0.998c0.06,0.066,0.105,0.135,0.148,0.194
		c0.042,0.061,0.06,0.13,0.106,0.157c0.009,0.062-0.081,0.201-0.12,0.276c-0.06,0.093-0.092,0.143-0.092,0.143
		s-0.052,0.028-0.149,0.08c-0.077,0.034-0.224,0.113-0.285,0.099c-0.023-0.049-0.091-0.071-0.147-0.118s-0.121-0.099-0.183-0.163
		c-0.254-0.251-0.592-0.586-0.93-0.921c-0.334-0.339-0.656-0.689-0.865-0.981c-0.089-0.161-0.23-0.233-0.21-0.394
		C215.924,6.31,216.081,6.083,216.081,6.083z"/>
</g>
<g>
	<path fill="#FFFFFF" d="M186.081,6.083c0,0,0.238-0.14,0.407-0.154c0.161-0.008,0.222,0.139,0.375,0.24
		c0.275,0.23,0.601,0.579,0.912,0.938c0.309,0.363,0.616,0.727,0.848,0.998c0.06,0.066,0.105,0.135,0.148,0.194
		c0.042,0.061,0.06,0.13,0.106,0.157c0.009,0.062-0.081,0.201-0.12,0.276c-0.06,0.093-0.092,0.143-0.092,0.143
		s-0.052,0.028-0.149,0.08c-0.077,0.034-0.224,0.113-0.285,0.099c-0.023-0.049-0.091-0.071-0.147-0.118s-0.121-0.099-0.183-0.163
		c-0.254-0.251-0.592-0.586-0.93-0.921c-0.334-0.339-0.656-0.689-0.865-0.981c-0.089-0.161-0.23-0.233-0.21-0.394
		C185.924,6.31,186.081,6.083,186.081,6.083z"/>
</g>
<g>
	<path fill="#FFFFFF" d="M182.865,4.541c0,0,0.049-0.229,0.137-0.341c0.088-0.106,0.214-0.056,0.365-0.09
		c0.303-0.044,0.707-0.053,1.111-0.042c0.403,0.015,0.808,0.03,1.11,0.042c0.076,0.001,0.146,0.011,0.207,0.019
		c0.062,0.008,0.115,0.037,0.159,0.023c0.045,0.03,0.08,0.166,0.104,0.232c0.024,0.09,0.037,0.139,0.037,0.139
		s-0.013,0.048-0.035,0.139c-0.023,0.067-0.058,0.204-0.102,0.234c-0.044-0.013-0.098,0.016-0.159,0.025
		c-0.062,0.008-0.131,0.019-0.206,0.021c-0.304,0.015-0.707,0.035-1.111,0.055c-0.403,0.016-0.808,0.012-1.11-0.028
		c-0.152-0.033-0.278,0.019-0.367-0.086C182.917,4.769,182.865,4.542,182.865,4.541z"/>
</g>
<g>
	<path fill="#FFFFFF" d="M184.451,2.916c0,0,0.229,0.046,0.343,0.132c0.107,0.086,0.059,0.213,0.096,0.364
		c0.048,0.302,0.062,0.706,0.056,1.11c-0.01,0.404-0.02,0.809-0.026,1.112c-0.001,0.076-0.01,0.146-0.017,0.207
		s-0.035,0.116-0.021,0.16c-0.029,0.044-0.164,0.082-0.231,0.106c-0.09,0.025-0.138,0.039-0.138,0.039s-0.049-0.012-0.14-0.033
		c-0.067-0.022-0.204-0.055-0.234-0.099c0.013-0.044-0.018-0.098-0.027-0.159c-0.009-0.062-0.021-0.131-0.023-0.207
		c-0.02-0.303-0.045-0.706-0.069-1.109c-0.021-0.404-0.023-0.808,0.014-1.111c0.031-0.152-0.022-0.277,0.081-0.368
		C184.225,2.97,184.451,2.916,184.451,2.916z"/>
</g>
<g>
	<path fill="#FFFFFF" d="M93.363,8.178c-0.246-0.384-0.224-0.499-0.162-0.576c0.045-0.094,0.101-0.176,0.167-0.247
		c0.131-0.146,0.304-0.249,0.452-0.377c0.286-0.267,0.396-0.547,0.675-0.82L96,4.509v0.707c0-0.512-1.014-1.062-1.548-1.646
		c-0.267-0.292-0.45-0.587-0.707-0.89l-0.341-0.458c-0.111-0.167-0.314-0.225-0.103-0.716c0.492-0.212,0.56,0.011,0.728,0.123
		l0.462,0.382c0.303,0.257,0.599,0.521,0.891,0.789c0.586,0.534,1.137,1.104,1.648,1.71l0.322,0.381l-0.321,0.326l-1.647,1.667
		c-0.273,0.28-0.554,0.552-0.82,0.838c-0.128,0.148-0.231,0.321-0.377,0.452c-0.071,0.066-0.153,0.122-0.247,0.167
		C93.862,8.401,93.747,8.424,93.363,8.178z"/>
</g>
<g>
	<path fill="#FFFFFF" d="M68.335,6.479c-0.384,0.246-0.499,0.224-0.576,0.162c-0.093-0.045-0.176-0.101-0.247-0.167
		c-0.146-0.131-0.249-0.304-0.377-0.452c-0.267-0.286-0.547-0.316-0.82-0.596L64.667,4h0.707c-0.513,0-1.062,0.935-1.646,1.469
		c-0.293,0.267-0.587,0.411-0.89,0.667l-0.457,0.322c-0.168,0.111-0.226,0.304-0.717,0.092c-0.212-0.491,0.011-0.564,0.123-0.731
		l0.382-0.465c0.257-0.303,0.521-0.601,0.788-0.893c0.534-0.584,1.104-1.135,1.71-1.647l0.382-0.323l0.325,0.322l1.667,1.647
		c0.279,0.273,0.551,0.554,0.837,0.82c0.148,0.128,0.321,0.231,0.452,0.376c0.066,0.072,0.122,0.154,0.167,0.248
		C68.559,5.979,68.581,6.095,68.335,6.479z"/>
</g>
</svg>
