<?xml version="1.0" encoding="utf-8"?>
<!-- Generator: Adobe Illustrator 16.0.4, SVG Export Plug-In . SVG Version: 6.00 Build 0)  -->
<!DOCTYPE svg PUBLIC "-//W3C//DTD SVG 1.1//EN" "http://www.w3.org/Graphics/SVG/1.1/DTD/svg11.dtd">
<svg version="1.1" id="Layer_1" xmlns="http://www.w3.org/2000/svg" xmlns:xlink="http://www.w3.org/1999/xlink" x="0px" y="0px"
	 width="20px" height="20px" viewBox="0 0 20 20" enable-background="new 0 0 20 20" xml:space="preserve">
<rect x="-371" y="-42" fill="#FFFFFF" width="218" height="95"/>
<rect x="-153" y="-23" fill="#051360" width="237" height="64"/>
<polyline fill="none" stroke="#051360" stroke-miterlimit="10" points="-353.201,8.207 -349.886,11.521 -346.53,8.166 "/>
<polyline fill="none" stroke="#051360" stroke-miterlimit="10" points="-316.664,11.637 -319.979,8.322 -323.336,11.678 "/>
<polyline fill="none" stroke="#051360" stroke-miterlimit="10" points="-291.502,13.178 -288.188,9.863 -291.543,6.506 "/>
<polyline fill="none" stroke="#051360" stroke-miterlimit="10" points="-258.363,6.506 -261.678,9.821 -258.322,13.178 "/>
<g>
	<circle fill="none" stroke="#051360" stroke-miterlimit="10" cx="-231" cy="9.073" r="2.875"/>
	<line fill="none" stroke="#051360" stroke-miterlimit="10" x1="-229.188" y1="11.178" x2="-226.146" y2="13.803"/>
</g>
<g>
	<circle fill="none" stroke="#051360" stroke-width="2.098" stroke-miterlimit="10" cx="-201.993" cy="8.285" r="6.032"/>
	<line fill="none" stroke="#051360" stroke-width="2" stroke-miterlimit="10" x1="-201.935" y1="11.285" x2="-202.052" y2="5.287"/>
	<line fill="none" stroke="#051360" stroke-width="2" stroke-miterlimit="10" x1="-205.022" y1="8.344" x2="-199.024" y2="8.227"/>
	
		<line fill="none" stroke="#051360" stroke-width="1.7711" stroke-miterlimit="10" x1="-197.057" y1="12.896" x2="-191.976" y2="17.747"/>
</g>
<circle fill="none" stroke="#051360" stroke-miterlimit="10" cx="-170.723" cy="9.504" r="2.875"/>
<line fill="none" stroke="#051360" stroke-miterlimit="10" x1="-172.223" y1="9.512" x2="-169.223" y2="9.496"/>
<line fill="none" stroke="#051360" stroke-width="0.8442" stroke-miterlimit="10" x1="-168.837" y1="11.588" x2="-166.402" y2="13.887"/>
<polyline fill="none" stroke="#FFFFFF" stroke-miterlimit="10" points="-143.336,8.207 -140.021,11.521 -136.664,8.166 "/>
<polyline fill="none" stroke="#FFFFFF" stroke-miterlimit="10" points="-106.664,11.637 -109.979,8.322 -113.336,11.678 "/>
<polyline fill="none" stroke="#FFFFFF" stroke-miterlimit="10" points="-81.637,13.178 -78.322,9.863 -81.678,6.506 "/>
<polyline fill="none" stroke="#FFFFFF" stroke-miterlimit="10" points="-48.363,6.506 -51.678,9.821 -48.322,13.178 "/>
<g>
	<circle fill="none" stroke="#FFFFFF" stroke-miterlimit="10" cx="-20.99" cy="9.073" r="2.875"/>
	<line fill="none" stroke="#FFFFFF" stroke-miterlimit="10" x1="-19.178" y1="11.178" x2="-16.135" y2="13.803"/>
</g>
<path fill="none" stroke="#FFFFFF" stroke-width="1.5742" stroke-miterlimit="10" d="M17.586,18.641"/>
<path fill="none" stroke="#FFFFFF" stroke-width="1.5742" stroke-miterlimit="10" d="M13.012,14.383"/>
<g>
	<circle fill="none" stroke="#FFFFFF" stroke-miterlimit="10" cx="39.277" cy="9.504" r="2.875"/>
	<line fill="none" stroke="#FFFFFF" stroke-miterlimit="10" x1="37.777" y1="9.512" x2="40.777" y2="9.496"/>
	
		<line fill="none" stroke="#FFFFFF" stroke-width="0.8442" stroke-miterlimit="10" x1="41.163" y1="11.588" x2="43.598" y2="13.887"/>
</g>
<g>
	<circle fill="none" stroke="#FFFFFF" stroke-width="2.098" stroke-miterlimit="10" cx="8.007" cy="8.284" r="6.032"/>
	<line fill="none" stroke="#FFFFFF" stroke-width="2" stroke-miterlimit="10" x1="8.065" y1="11.285" x2="7.948" y2="5.287"/>
	<line fill="none" stroke="#FFFFFF" stroke-width="2" stroke-miterlimit="10" x1="4.978" y1="8.344" x2="10.976" y2="8.227"/>
	
		<line fill="none" stroke="#FFFFFF" stroke-width="1.7711" stroke-miterlimit="10" x1="12.943" y1="12.896" x2="18.024" y2="17.747"/>
</g>
</svg>
