<?xml version="1.0" encoding="utf-8"?>
<!-- Generator: Adobe Illustrator 16.0.4, SVG Export Plug-In . SVG Version: 6.00 Build 0)  -->
<!DOCTYPE svg PUBLIC "-//W3C//DTD SVG 1.1//EN" "http://www.w3.org/Graphics/SVG/1.1/DTD/svg11.dtd">
<svg version="1.1" id="Layer_1" xmlns="http://www.w3.org/2000/svg" xmlns:xlink="http://www.w3.org/1999/xlink" x="0px" y="0px"
	 width="20px" height="20px" viewBox="0 0 20 20" enable-background="new 0 0 20 20" xml:space="preserve">
<rect x="-161" y="-42" fill="#FFFFFF" width="218" height="95"/>
<rect x="52" y="-13" fill="#051360" width="237" height="64"/>
<polyline fill="none" stroke="#051360" stroke-miterlimit="10" points="-143.201,8.207 -139.886,11.521 -136.53,8.166 "/>
<polyline fill="none" stroke="#051360" stroke-miterlimit="10" points="-106.664,11.637 -109.979,8.322 -113.336,11.678 "/>
<polyline fill="none" stroke="#051360" stroke-miterlimit="10" points="-81.502,13.178 -78.188,9.863 -81.543,6.506 "/>
<polyline fill="none" stroke="#051360" stroke-miterlimit="10" points="-48.363,6.506 -51.678,9.821 -48.322,13.178 "/>
<g>
	<circle fill="none" stroke="#051360" stroke-miterlimit="10" cx="-21" cy="9.073" r="2.875"/>
	<line fill="none" stroke="#051360" stroke-miterlimit="10" x1="-19.188" y1="11.178" x2="-16.146" y2="13.803"/>
</g>
<g>
	<circle fill="none" stroke="#051360" stroke-width="2.098" stroke-miterlimit="10" cx="8.007" cy="8.285" r="6.032"/>
	<line fill="none" stroke="#051360" stroke-width="2" stroke-miterlimit="10" x1="8.065" y1="11.285" x2="7.948" y2="5.287"/>
	<line fill="none" stroke="#051360" stroke-width="2" stroke-miterlimit="10" x1="4.978" y1="8.344" x2="10.976" y2="8.227"/>
	
		<line fill="none" stroke="#051360" stroke-width="1.7711" stroke-miterlimit="10" x1="12.943" y1="12.896" x2="18.024" y2="17.747"/>
</g>
<circle fill="none" stroke="#051360" stroke-miterlimit="10" cx="39.277" cy="9.504" r="2.875"/>
<line fill="none" stroke="#051360" stroke-miterlimit="10" x1="37.777" y1="9.512" x2="40.777" y2="9.496"/>
<line fill="none" stroke="#051360" stroke-width="0.8442" stroke-miterlimit="10" x1="41.163" y1="11.588" x2="43.598" y2="13.887"/>
<polyline fill="none" stroke="#FFFFFF" stroke-miterlimit="10" points="66.664,8.207 69.979,11.521 73.336,8.166 "/>
<polyline fill="none" stroke="#FFFFFF" stroke-miterlimit="10" points="103.336,11.637 100.021,8.322 96.664,11.678 "/>
<polyline fill="none" stroke="#FFFFFF" stroke-miterlimit="10" points="128.363,13.178 131.678,9.863 128.322,6.506 "/>
<polyline fill="none" stroke="#FFFFFF" stroke-miterlimit="10" points="161.637,6.506 158.322,9.821 161.678,13.178 "/>
<g>
	<circle fill="none" stroke="#FFFFFF" stroke-miterlimit="10" cx="189.01" cy="9.073" r="2.875"/>
	<line fill="none" stroke="#FFFFFF" stroke-miterlimit="10" x1="190.822" y1="11.178" x2="193.865" y2="13.803"/>
</g>
<ellipse fill="none" stroke="#FFFFFF" stroke-width="1.8649" stroke-miterlimit="10" cx="220" cy="9.528" rx="5.431" ry="5.293"/>
<line fill="none" stroke="#FFFFFF" stroke-width="2" stroke-miterlimit="10" x1="220" y1="13" x2="220" y2="7"/>
<line fill="none" stroke="#FFFFFF" stroke-width="2" stroke-miterlimit="10" x1="217" y1="10" x2="223" y2="10"/>
<line fill="none" stroke="#FFFFFF" stroke-width="1.5742" stroke-miterlimit="10" x1="223.012" y1="14.383" x2="227.586" y2="18.641"/>
<g>
	<circle fill="none" stroke="#FFFFFF" stroke-miterlimit="10" cx="249.277" cy="9.504" r="2.875"/>
	<line fill="none" stroke="#FFFFFF" stroke-miterlimit="10" x1="247.777" y1="9.512" x2="250.777" y2="9.496"/>
	
		<line fill="none" stroke="#FFFFFF" stroke-width="0.8442" stroke-miterlimit="10" x1="251.163" y1="11.588" x2="253.598" y2="13.887"/>
</g>
</svg>
